<?xml version="1.0" standalone="no"?>
<!DOCTYPE svg PUBLIC "-//W3C//DTD SVG 20010904//EN"
 "http://www.w3.org/TR/2001/REC-SVG-20010904/DTD/svg10.dtd">
<svg version="1.0" xmlns="http://www.w3.org/2000/svg"
 width="300px" height="100px" viewBox="0 0 3840.000000 2160.000000"
 preserveAspectRatio="xMidYMid meet">

<g transform="translate(0.000000,2160.000000) scale(0.100000,-0.100000)"
fill="#000000" stroke="none">
<path d="M0 10800 l0 -10800 7163 3 c3939 1 7173 6 7187 10 20 6 21 5 5 -2
-13 -6 1584 -10 4358 -10 2407 -1 4377 2 4377 5 0 3 -8 18 -17 32 -27 41 -41
64 -59 97 -21 38 -130 225 -249 425 -51 85 -186 315 -300 510 -114 195 -220
375 -235 400 -15 25 -173 293 -350 595 -177 303 -333 559 -347 569 -37 29 -44
56 -22 92 l18 30 -64 184 c-36 101 -63 185 -61 187 3 3 39 -93 109 -292 24
-69 26 -70 71 -83 45 -13 47 -12 108 24 467 276 608 357 608 350 0 -2 -48 -32
-107 -67 -60 -34 -162 -95 -228 -134 -66 -39 -168 -100 -227 -134 -101 -60
-108 -65 -108 -95 0 -18 -5 -37 -12 -44 -9 -9 -4 -20 23 -50 19 -20 98 -104
174 -187 76 -82 177 -189 224 -238 47 -48 81 -87 75 -87 -6 0 -26 17 -44 37
-32 36 -231 249 -370 397 -114 121 -101 111 -112 92 -7 -13 49 -115 248 -454
141 -240 316 -538 389 -662 73 -124 153 -260 179 -303 25 -43 46 -80 46 -83 0
-4 75 -130 116 -194 12 -19 60 -100 106 -180 147 -252 300 -513 334 -570 18
-30 47 -81 65 -113 l32 -57 966 2 c954 3 966 3 976 23 6 11 27 46 48 78 20 31
37 60 37 63 0 13 105 184 113 184 4 0 6 4 3 8 -6 10 31 59 38 51 3 -3 -2 -14
-12 -25 -9 -11 -18 -26 -20 -33 -2 -8 -17 -34 -35 -60 -17 -25 -31 -48 -31
-51 0 -3 -12 -25 -26 -51 -15 -25 -39 -66 -54 -92 -14 -26 -33 -59 -42 -72
l-16 -25 6676 0 6676 0 0 10800 0 10800 -8107 -1 c-4460 0 -8101 -3 -8093 -6
26 -10 61 -47 81 -85 10 -20 24 -38 30 -40 8 -3 6 -9 -5 -20 -9 -9 -16 -20
-16 -24 0 -4 -11 -22 -26 -41 -37 -48 -78 -67 -136 -60 -27 4 -48 2 -48 -3 0
-5 -7 -7 -15 -4 -8 4 -15 15 -15 25 0 11 -11 24 -24 30 -22 10 -24 16 -21 65
2 30 0 56 -5 59 -12 7 -1 35 14 35 6 0 17 9 24 21 7 11 27 27 45 34 27 12
-508 14 -3725 15 l-3757 0 25 -72 c13 -39 22 -73 20 -75 -2 -2 -15 29 -28 69
l-25 73 -7296 3 -7297 2 0 -10800z m14750 10362 c50 -150 90 -276 87 -278 -4
-5 -187 534 -187 551 0 19 12 -14 100 -273z m20910 -194 c0 -24 -27 -48 -55
-48 -18 0 -23 4 -19 15 4 8 12 15 19 15 8 0 17 4 20 10 3 6 -2 8 -12 5 -10 -3
-8 0 5 6 16 9 21 18 16 33 -6 21 -6 21 10 1 8 -11 16 -28 16 -37z m-96 17 c-4
-8 -8 -15 -10 -15 -2 0 -4 7 -4 15 0 8 4 15 10 15 5 0 7 -7 4 -15z m32 0 c-8
-8 -17 -15 -20 -15 -3 0 -3 7 0 15 4 8 13 15 21 15 12 0 12 -2 -1 -15z m-16
-35 c0 -5 -5 -10 -11 -10 -5 0 -7 5 -4 10 3 6 8 10 11 10 2 0 4 -4 4 -10z
m-8602 -86 c14 -9 22 -26 22 -44 0 -24 6 -30 36 -40 19 -7 33 -14 31 -16 -2
-3 -17 0 -32 6 -22 8 -36 7 -64 -6 -20 -9 -39 -22 -43 -28 -5 -8 -8 -7 -8 2 0
6 -9 21 -20 32 -39 39 -13 110 40 110 9 0 26 -7 38 -16z m-12109 -64 c0 -23
-15 7 -22 45 l-6 30 14 -30 c8 -16 14 -37 14 -45z m72 -205 c33 -98 58 -182
57 -187 -2 -5 -29 66 -60 159 -66 199 -73 220 -64 212 3 -3 33 -86 67 -184z
m12214 139 c24 -11 25 -13 5 -8 -14 4 -38 13 -55 20 -24 11 -25 13 -5 8 14 -4
39 -13 55 -20z m95 -34 c18 -12 2 -12 -25 0 -13 6 -15 9 -5 9 8 0 22 -4 30 -9z
m85 -30 c13 -6 15 -9 5 -9 -8 0 -22 4 -30 9 -18 12 -2 12 25 0z m-15669 -79
c-4 -6 -16 -11 -27 -11 -21 0 -27 35 -6 43 16 6 41 -18 33 -32z m15839 19 c13
-6 15 -9 5 -9 -8 0 -22 4 -30 9 -18 12 -2 12 25 0z m-588 -197 c-2 -37 -3 -9
-3 62 0 72 1 102 3 68 2 -34 2 -93 0 -130z m703 157 c18 -12 2 -12 -25 0 -13
6 -15 9 -5 9 8 0 22 -4 30 -9z m-8980 -24 c0 -18 -21 -35 -36 -29 -17 6 -18
40 -1 46 17 6 37 -3 37 -17z m9250 -76 c8 -5 11 -10 5 -10 -5 0 -17 5 -25 10
-8 5 -10 10 -5 10 6 0 17 -5 25 -10z m91 -38 c-7 -2 -18 1 -23 6 -8 8 -4 9 13
5 13 -4 18 -8 10 -11z m-12901 -250 c34 -101 59 -186 57 -189 -3 -3 -19 37
-36 89 -16 51 -46 139 -65 196 -20 56 -36 106 -36 110 1 18 22 -36 80 -206z
m13065 190 c-3 -3 -11 0 -18 7 -9 10 -8 11 6 5 10 -3 15 -9 12 -12z m-1238
-204 c-2 -35 -3 -9 -3 57 0 66 1 94 3 63 2 -32 2 -86 0 -120z m1433 142 c8 -5
11 -10 5 -10 -5 0 -17 5 -25 10 -8 5 -10 10 -5 10 6 0 17 -5 25 -10z m-21535
-304 c56 -37 75 -132 35 -183 -33 -43 -71 -63 -117 -63 -79 0 -148 88 -129
164 8 31 53 85 80 97 30 13 101 4 131 -15z m-2799 -21 c27 -41 -9 -103 -46
-80 -5 3 -10 1 -10 -6 0 -7 -11 -3 -24 10 -29 27 -28 67 3 92 26 21 57 14 77
-16z m11204 -193 c34 -101 60 -185 57 -188 -4 -4 -127 353 -127 370 0 20 10
-6 70 -182z m1975 78 c-3 -5 -12 -10 -18 -10 -7 0 -6 4 3 10 19 12 23 12 15 0z
m-130 -60 c-3 -5 -12 -10 -18 -10 -7 0 -6 4 3 10 19 12 23 12 15 0z m2925 -46
c0 -2 -9 0 -20 6 -11 6 -20 13 -20 16 0 2 9 0 20 -6 11 -6 20 -13 20 -16z
m-3050 -9 c0 -2 -10 -9 -22 -15 -22 -11 -22 -10 -4 4 21 17 26 19 26 11z
m-3150 -15 c8 -5 11 -10 5 -10 -5 0 -17 5 -25 10 -8 5 -10 10 -5 10 6 0 17 -5
25 -10z m6305 -38 c-3 -3 -11 0 -18 7 -9 10 -8 11 6 5 10 -3 15 -9 12 -12z
m55 -28 c0 -2 -9 0 -20 6 -11 6 -20 13 -20 16 0 2 9 0 20 -6 11 -6 20 -13 20
-16z m-6205 -2 c-3 -3 -11 0 -18 7 -9 10 -8 11 6 5 10 -3 15 -9 12 -12z m2835
3 c-14 -8 -29 -14 -35 -14 -5 0 1 6 15 14 14 8 30 14 35 14 6 0 -1 -6 -15 -14z
m-2765 -33 c-3 -3 -11 0 -18 7 -9 10 -8 11 6 5 10 -3 15 -9 12 -12z m2699 3
c-10 -8 -23 -15 -28 -15 -6 0 -1 7 10 15 10 8 23 15 28 15 6 0 1 -7 -10 -15z
m-2604 -35 c8 -5 11 -10 5 -10 -5 0 -17 5 -25 10 -8 5 -10 10 -5 10 6 0 17 -5
25 -10z m2530 0 c-8 -5 -19 -10 -25 -10 -5 0 -3 5 5 10 8 5 20 10 25 10 6 0 3
-5 -5 -10z m3700 -46 c0 -2 -13 2 -30 11 -16 9 -30 18 -30 21 0 2 14 -2 30
-11 17 -9 30 -18 30 -21z m-6150 16 c8 -5 11 -10 5 -10 -5 0 -17 5 -25 10 -8
5 -10 10 -5 10 6 0 17 -5 25 -10z m1180 -232 c65 -193 76 -218 94 -218 12 0
31 -7 43 -15 20 -14 31 -10 158 51 76 36 140 63 143 60 2 -3 -6 -10 -19 -15
-14 -5 -77 -34 -142 -64 -91 -44 -117 -60 -117 -76 0 -11 -11 -33 -25 -49 -14
-17 -26 -43 -26 -58 l-2 -29 -4 28 c-3 16 -12 31 -21 34 -9 3 -28 16 -42 29
-22 20 -30 21 -70 14 -44 -9 -95 -12 -75 -5 6 2 36 9 68 15 31 6 57 16 57 21
0 6 -23 20 -50 31 -65 27 -59 33 7 8 49 -18 51 -18 67 -1 16 17 12 33 -59 245
-41 124 -75 229 -75 233 1 19 22 -37 90 -239z m1206 233 c-6 -9 -46 -22 -46
-15 0 3 10 9 23 14 29 11 29 11 23 1z m-2316 -31 c8 -5 11 -10 5 -10 -5 0 -17
5 -25 10 -8 5 -10 10 -5 10 6 0 17 -5 25 -10z m2240 -5 c-14 -8 -29 -14 -35
-14 -5 0 1 6 15 14 14 8 30 14 35 14 6 0 -1 -6 -15 -14z m3910 -21 c0 -2 -13
2 -30 11 -16 9 -30 18 -30 21 0 2 14 -2 30 -11 17 -9 30 -18 30 -21z m6487 -6
c-3 -8 -6 -5 -6 6 -1 11 2 17 5 13 3 -3 4 -12 1 -19z m-10461 -3 c-11 -8 -25
-15 -30 -15 -6 1 0 7 14 15 32 19 40 18 16 0z m-2076 -5 c8 -5 11 -10 5 -10
-5 0 -17 5 -25 10 -8 5 -10 10 -5 10 6 0 17 -5 25 -10z m6203 -70 c54 -30 83
-54 35 -29 -63 33 -178 101 -178 106 0 3 19 -6 43 -20 23 -13 68 -39 100 -57z
m-6128 32 c-3 -3 -11 0 -18 7 -9 10 -8 11 6 5 10 -3 15 -9 12 -12z m1915 3
c-14 -8 -29 -14 -35 -14 -5 0 1 6 15 14 14 8 30 14 35 14 6 0 -1 -6 -15 -14z
m-1830 -30 c14 -8 21 -14 15 -14 -5 0 -21 6 -35 14 -14 8 -20 14 -15 14 6 0
21 -6 35 -14z m1764 0 c-10 -8 -23 -14 -29 -14 -5 0 -1 6 9 14 11 8 24 15 30
15 5 0 1 -7 -10 -15z m-1679 -36 c15 -14 -7 -10 -35 7 l-25 15 25 -7 c14 -3
29 -10 35 -15z m1615 6 c-14 -8 -29 -14 -35 -14 -5 0 1 6 15 14 14 8 30 14 35
14 6 0 -1 -6 -15 -14z m-64 -30 c-11 -8 -25 -15 -30 -15 -6 1 0 7 14 15 32 19
40 18 16 0z m4579 -48 c6 -6 -12 2 -40 18 -27 15 -54 32 -60 38 -5 6 13 -2 40
-18 28 -15 55 -32 60 -38z m-6055 43 c8 -5 11 -10 5 -10 -5 0 -17 5 -25 10 -8
5 -10 10 -5 10 6 0 17 -5 25 -10z m100 -42 c10 -6 7 -7 -10 -2 -14 3 -32 11
-40 16 -10 6 -7 7 10 2 14 -3 32 -11 40 -16z m1260 -8 c-30 -16 -59 -29 -65
-29 -5 0 15 13 45 29 30 16 60 29 65 29 6 0 -15 -13 -45 -29z m-1135 -40 c124
-49 225 -93 222 -96 -4 -4 -293 112 -315 127 -22 14 -8 9 93 -31z m6033 -64
c83 -48 84 -48 98 -27 23 32 104 23 104 -12 0 -26 20 -41 62 -47 l43 -7 -52
-2 c-43 -1 -53 -4 -53 -19 0 -9 31 -71 68 -137 80 -141 72 -126 162 -284 39
-68 69 -125 67 -128 -3 -2 -27 36 -54 84 -28 48 -78 138 -113 198 -34 61 -80
142 -102 182 l-39 71 -38 -5 c-31 -4 -41 -1 -53 16 -8 11 -17 18 -20 16 -3 -3
-3 5 -1 17 3 20 -11 32 -117 93 -66 39 -129 76 -138 83 -20 16 62 -27 176 -92z
m-5038 39 c-36 -19 -69 -34 -75 -34 -5 0 19 15 55 34 36 19 70 34 75 34 6 0
-19 -15 -55 -34z m-714 -88 c75 -35 98 -47 74 -41 -35 9 -127 52 -114 53 6 1
24 -5 40 -12z m6224 -62 c64 -10 74 -13 40 -13 -25 0 -81 5 -125 13 -55 8 -67
13 -40 13 22 0 78 -6 125 -13z m148 -22 c-10 -2 -28 -2 -40 0 -13 2 -5 4 17 4
22 1 32 -1 23 -4z m142 -12 l45 -8 -40 -1 c-22 0 -60 3 -85 7 l-45 8 40 1 c22
0 60 -3 85 -7z m108 -18 c-10 -2 -26 -2 -35 0 -10 3 -2 5 17 5 19 0 27 -2 18
-5z m137 -13 c49 -7 49 -7 10 -8 -22 0 -60 3 -85 7 -41 8 -42 9 -10 9 19 0 58
-3 85 -8z m108 -17 c-7 -2 -21 -2 -30 0 -10 3 -4 5 12 5 17 0 24 -2 18 -5z
m-6873 -19 c-36 -8 -74 -13 -85 -11 -24 4 76 25 120 25 17 0 1 -6 -35 -14z
m6953 9 c-7 -2 -19 -2 -25 0 -7 3 -2 5 12 5 14 0 19 -2 13 -5z m137 -12 c42
-8 42 -9 10 -9 -19 0 -55 3 -80 7 -42 8 -42 9 -10 9 19 0 55 -3 80 -7z m9687
-13 c-3 -8 -6 -5 -6 6 -1 11 2 17 5 13 3 -3 4 -12 1 -19z m-16904 -5 c-7 -2
-19 -2 -25 0 -7 3 -2 5 12 5 14 0 19 -2 13 -5z m7330 0 c-7 -2 -19 -2 -25 0
-7 3 -2 5 12 5 14 0 19 -2 13 -5z m-7408 -13 c-16 -4 -43 -8 -60 -8 -29 1 -29
1 5 8 19 4 46 7 60 8 22 0 22 -1 -5 -8z m7550 1 c53 -11 5 -12 -55 -2 -34 6
-37 9 -15 9 17 1 48 -3 70 -7z m-10768 -48 c-3 -10 -5 -2 -5 17 0 19 2 27 5
18 2 -10 2 -26 0 -35z m-3687 18 c0 -24 -12 -32 -30 -21 -11 7 -11 11 -1 24
18 22 31 20 31 -3z m14563 12 c-7 -2 -19 -2 -25 0 -7 3 -2 5 12 5 14 0 19 -2
13 -5z m-7848 -13 c-16 -4 -41 -8 -55 -8 -22 0 -22 1 5 8 17 4 41 8 55 8 22 0
22 -1 -5 -8z m7995 1 c33 -6 37 -9 15 -9 -16 0 -50 3 -75 7 -33 6 -37 9 -15 9
17 0 50 -3 75 -7z m-8093 -17 c-3 -3 -12 -4 -19 -1 -8 3 -5 6 6 6 11 1 17 -2
13 -5z m8186 -1 c-7 -2 -19 -2 -25 0 -7 3 -2 5 12 5 14 0 19 -2 13 -5z m-8250
-10 c-7 -2 -19 -2 -25 0 -7 3 -2 5 12 5 14 0 19 -2 13 -5z m885 -133 c0 -14
-6 4 -14 40 -17 85 -16 123 2 45 7 -33 13 -71 12 -85z m7475 133 c-7 -2 -21
-2 -30 0 -10 3 -4 5 12 5 17 0 24 -2 18 -5z m-8438 -13 c-16 -4 -39 -8 -50 -8
-16 0 -15 2 5 8 14 4 36 8 50 8 22 0 22 -1 -5 -8z m8513 3 c-10 -2 -26 -2 -35
0 -10 3 -2 5 17 5 19 0 27 -2 18 -5z m70 -10 c-10 -2 -26 -2 -35 0 -10 3 -2 5
17 5 19 0 27 -2 18 -5z m-8701 -9 c-3 -3 -12 -4 -19 -1 -8 3 -5 6 6 6 11 1 17
-2 13 -5z m8811 -1 c-10 -2 -26 -2 -35 0 -10 3 -2 5 17 5 19 0 27 -2 18 -5z
m-8855 -10 c-7 -2 -19 -2 -25 0 -7 3 -2 5 12 5 14 0 19 -2 13 -5z m8972 -2
c26 -6 31 -9 15 -9 -14 -1 -43 3 -65 7 -26 6 -31 9 -15 9 14 1 43 -3 65 -7z
m-9022 -8 c-7 -2 -19 -2 -25 0 -7 3 -2 5 12 5 14 0 19 -2 13 -5z m-146 -19
c-3 -3 -12 -4 -19 -1 -8 3 -5 6 6 6 11 1 17 -2 13 -5z m9381 -1 c-10 -2 -26
-2 -35 0 -10 3 -2 5 17 5 19 0 27 -2 18 -5z m-9421 -9 c-3 -3 -12 -4 -19 -1
-8 3 -5 6 6 6 11 1 17 -2 13 -5z m9486 -1 c-7 -2 -21 -2 -30 0 -10 3 -4 5 12
5 17 0 24 -2 18 -5z m190 -20 c-7 -2 -19 -2 -25 0 -7 3 -2 5 12 5 14 0 19 -2
13 -5z m-9866 -9 c-3 -3 -12 -4 -19 -1 -8 3 -5 6 6 6 11 1 17 -2 13 -5z m9936
-1 c-7 -2 -21 -2 -30 0 -10 3 -4 5 12 5 17 0 24 -2 18 -5z m54 -9 c-3 -3 -12
-4 -19 -1 -8 3 -5 6 6 6 11 1 17 -2 13 -5z m196 -21 c-7 -2 -19 -2 -25 0 -7 3
-2 5 12 5 14 0 19 -2 13 -5z m70 -10 c-7 -2 -19 -2 -25 0 -7 3 -2 5 12 5 14 0
19 -2 13 -5z m-8696 -35 c-3 -8 -6 -5 -6 6 -1 11 2 17 5 13 3 -3 4 -12 1 -19z
m8880 16 c-3 -3 -12 -4 -19 -1 -8 3 -5 6 6 6 11 1 17 -2 13 -5z m-8862 -99
c10 -65 0 -55 -13 13 -5 30 -6 50 -2 45 5 -4 12 -30 15 -58z m9182 59 c-3 -3
-12 -4 -19 -1 -8 3 -5 6 6 6 11 1 17 -2 13 -5z m-12038 -98 c9 -10 8 -16 -4
-26 -19 -16 -41 1 -32 24 8 20 21 20 36 2z m2868 -48 c-3 -7 -5 -2 -5 12 0 14
2 19 5 13 2 -7 2 -19 0 -25z m5913 -38 c6 -11 8 -20 6 -20 -3 0 -10 9 -16 20
-6 11 -8 20 -6 20 3 0 10 -9 16 -20z m-5903 -22 c-3 -7 -5 -2 -5 12 0 14 2 19
5 13 2 -7 2 -19 0 -25z m-3770 -55 c-3 -10 -5 -2 -5 17 0 19 2 27 5 18 2 -10
2 -26 0 -35z m9735 -30 c50 -91 60 -114 23 -58 -32 49 -77 135 -71 135 3 0 24
-35 48 -77z m-5955 30 c-3 -10 -5 -4 -5 12 0 17 2 24 5 18 2 -7 2 -21 0 -30z
m11313 -3 c0 -23 -35 -28 -43 -6 -7 18 1 26 25 26 11 0 18 -7 18 -20z m-11303
-42 c-3 -8 -6 -5 -6 6 -1 11 2 17 5 13 3 -3 4 -12 1 -19z m18543 12 c0 -5 -4
-10 -10 -10 -5 0 -10 5 -10 10 0 6 5 10 10 10 6 0 10 -4 10 -10z m-22323 -87
c-3 -10 -5 -2 -5 17 0 19 2 27 5 18 2 -10 2 -26 0 -35z m3790 15 c-3 -8 -6 -5
-6 6 -1 11 2 17 5 13 3 -3 4 -12 1 -19z m10 -60 c-3 -7 -5 -2 -5 12 0 14 2 19
5 13 2 -7 2 -19 0 -25z m5993 12 c6 -11 8 -20 6 -20 -3 0 -10 9 -16 20 -6 11
-8 20 -6 20 3 0 10 -9 16 -20z m-5983 -62 c-3 -7 -5 -2 -5 12 0 14 2 19 5 13
2 -7 2 -19 0 -25z m6023 -8 c6 -11 8 -20 6 -20 -3 0 -10 9 -16 20 -6 11 -8 20
-6 20 3 0 10 -9 16 -20z m-6003 -112 c-3 -8 -6 -5 -6 6 -1 11 2 17 5 13 3 -3
4 -12 1 -19z m6071 -14 c-4 -3 -12 5 -18 18 -12 22 -12 22 6 6 10 -10 15 -20
12 -24z m-6061 -26 c-3 -8 -6 -5 -6 6 -1 11 2 17 5 13 3 -3 4 -12 1 -19z
m6083 -8 c6 -11 8 -20 6 -20 -3 0 -10 9 -16 20 -6 11 -8 20 -6 20 3 0 10 -9
16 -20z m-9903 -102 c-2 -13 -4 -3 -4 22 0 25 2 35 4 23 2 -13 2 -33 0 -45z
m9943 32 c6 -11 8 -20 6 -20 -3 0 -10 9 -16 20 -6 11 -8 20 -6 20 3 0 10 -9
16 -20z m30 -50 c6 -11 8 -20 6 -20 -3 0 -10 9 -16 20 -6 11 -8 20 -6 20 3 0
10 -9 16 -20z m-9963 -122 c-2 -18 -4 -6 -4 27 0 33 2 48 4 33 2 -15 2 -42 0
-60z m10003 51 c15 -28 5 -23 -15 7 -9 15 -12 23 -6 20 6 -4 16 -16 21 -27z
m39 -73 c-3 -3 -11 5 -18 17 -13 21 -12 21 5 5 10 -10 16 -20 13 -22z m-10032
-123 c-2 -16 -4 -5 -4 22 0 28 2 40 4 28 2 -13 2 -35 0 -50z m3870 5 c-3 -8
-6 -5 -6 6 -1 11 2 17 5 13 3 -3 4 -12 1 -19z m10627 -122 c44 -18 116 -134
94 -151 -7 -5 -18 -22 -25 -36 -12 -29 -96 -104 -116 -105 -7 0 -19 5 -27 11
-8 7 -28 17 -45 24 -37 14 -74 66 -82 115 -3 20 -9 39 -13 41 -11 7 0 45 13
45 6 0 20 9 31 19 53 50 110 62 170 37z m-14487 -63 c-2 -16 -4 -5 -4 22 0 28
2 40 4 28 2 -13 2 -35 0 -50z m2793 48 c0 -6 14 -25 30 -43 17 -18 30 -35 30
-39 0 -3 9 -16 20 -29 11 -13 16 -26 11 -29 -5 -4 -12 -18 -16 -33 -4 -15 -22
-44 -41 -66 -19 -22 -34 -45 -34 -51 0 -6 -4 -11 -10 -11 -5 0 -10 4 -10 9 0
4 -21 7 -47 5 -27 -1 -48 -3 -48 -4 0 -1 -8 -3 -17 -5 -10 -2 -18 3 -18 10 0
7 -14 25 -32 40 -29 25 -31 31 -29 78 6 107 45 152 145 167 28 4 54 8 59 9 4
0 7 -3 7 -8z m16270 -50 c-29 -42 -36 -39 -8 3 13 19 24 33 26 31 3 -2 -6 -18
-18 -34z m995 29 c-3 -5 -12 -10 -18 -10 -7 0 -6 4 3 10 19 12 23 12 15 0z
m-1035 -89 c-5 -11 -15 -23 -21 -27 -6 -3 -3 5 6 20 20 30 30 35 15 7z
m-19003 -226 c0 -53 -1 -50 -8 25 -4 47 -7 114 -6 150 0 60 1 58 8 -25 4 -49
7 -117 6 -150z m18927 120 c-9 -14 -18 -25 -21 -25 -5 0 5 18 20 38 17 22 18
13 1 -13z m-24 -39 c0 -2 -8 -10 -17 -17 -16 -13 -17 -12 -4 4 13 16 21 21 21
13z m555 -6 c-3 -5 -12 -10 -18 -10 -7 0 -6 4 3 10 19 12 23 12 15 0z m-10734
-80 c15 0 49 -78 49 -111 0 -79 -56 -133 -149 -142 -50 -5 -55 -4 -80 25 -42
50 -50 70 -51 125 0 45 4 55 36 87 20 20 50 38 69 42 19 3 40 13 46 20 10 12
17 10 42 -16 16 -16 33 -30 38 -30z m10119 5 c-17 -25 -33 -45 -36 -45 -3 0 9
20 26 45 17 25 33 45 36 45 3 0 -9 -20 -26 -45z m370 -25 c-8 -5 -19 -10 -25
-10 -5 0 -3 5 5 10 8 5 20 10 25 10 6 0 3 -5 -5 -10z m-60 -25 c-14 -8 -29
-14 -35 -14 -5 0 1 6 15 14 14 8 30 14 35 14 6 0 -1 -6 -15 -14z m-356 -17
c-4 -7 -23 -34 -42 -61 -39 -55 -37 -82 6 -73 26 5 26 5 5 -6 -14 -7 -23 -20
-23 -34 0 -27 -44 -64 -76 -64 -17 0 -25 -9 -34 -36 -7 -19 -14 -33 -17 -31
-2 3 3 22 12 42 14 34 14 40 0 55 -8 9 -15 25 -15 35 0 29 40 65 71 65 23 0
36 11 70 60 23 33 44 60 46 60 2 0 1 -6 -3 -12z m-18787 -125 c-2 -16 -4 -3
-4 27 0 30 2 43 4 28 2 -16 2 -40 0 -55z m314 36 c-5 -13 -10 -19 -10 -12 -1
15 10 45 15 40 3 -2 0 -15 -5 -28z m18569 1 c-8 -5 -19 -10 -25 -10 -5 0 -3 5
5 10 8 5 20 10 25 10 6 0 3 -5 -5 -10z m-60 -25 c-14 -8 -29 -14 -35 -14 -5 0
1 6 15 14 14 8 30 14 35 14 6 0 -1 -6 -15 -14z m-21144 -76 c9 -16 -20 -41
-39 -33 -13 5 -14 10 -6 25 11 21 34 25 45 8z m2341 -209 l0 -75 -8 85 c-4 47
-7 114 -6 150 l0 65 7 -75 c4 -41 7 -109 7 -150z m253 183 c-11 -17 -11 -17
-6 0 3 10 6 24 7 30 0 9 2 9 5 0 3 -7 0 -20 -6 -30z m-26 -97 c-3 -15 -8 -25
-11 -23 -2 3 -1 17 3 31 3 15 8 25 11 23 2 -3 1 -17 -3 -31z m25401 -6 c19
-21 7 -28 -13 -8 -7 7 -12 8 -12 4 0 -5 8 -15 18 -22 14 -11 15 -13 2 -14 -9
0 -21 5 -28 12 -9 9 -12 9 -12 0 0 -7 5 -12 11 -12 6 0 1 -9 -12 -20 -13 -10
-20 -19 -16 -20 5 0 15 7 23 15 17 16 54 21 54 6 0 -5 -7 -14 -15 -21 -12 -10
-15 -10 -15 0 0 10 -5 9 -17 -3 -22 -19 -48 -4 -58 35 -7 29 19 63 42 54 8 -3
11 -1 8 4 -11 19 22 10 40 -10z m-7064 -47 c-12 -20 -14 -14 -5 12 4 9 9 14
11 11 3 -2 0 -13 -6 -23z m-18367 -47 c-3 -15 -8 -25 -11 -23 -2 3 -1 17 3 31
3 15 8 25 11 23 2 -3 1 -17 -3 -31z m-7239 -6 c3 -6 -1 -7 -9 -4 -18 7 -21 14
-7 14 6 0 13 -4 16 -10z m11049 -36 c27 -10 20 -44 -9 -44 -18 0 -25 5 -25 18
0 29 9 36 34 26z m14495 -63 c-6 -18 -13 -30 -15 -28 -2 2 1 18 7 36 6 18 13
30 15 28 2 -2 -1 -18 -7 -36z m-18345 -25 c-3 -15 -8 -25 -11 -23 -2 3 -1 17
3 31 3 15 8 25 11 23 2 -3 1 -17 -3 -31z m-147 -63 c-2 -16 -4 -3 -4 27 0 30
2 43 4 28 2 -16 2 -40 0 -55z m18459 10 c-8 -15 -15 -25 -16 -21 0 12 23 58
27 54 3 -2 -2 -17 -11 -33z m-18337 -32 c-7 -23 -14 -39 -16 -37 -3 2 1 23 8
45 7 23 14 39 16 37 3 -2 -1 -23 -8 -45z m-6779 -27 c0 -2 -9 0 -20 6 -11 6
-20 13 -20 16 0 2 9 0 20 -6 11 -6 20 -13 20 -16z m6683 -209 l3 -20 8 20 c20
53 26 60 20 24 -5 -31 -2 -37 20 -47 15 -6 31 -23 36 -38 7 -17 15 -24 28 -20
9 2 53 7 97 9 l80 6 -87 -14 c-112 -17 -120 -20 -80 -35 41 -15 37 -24 -5 -10
-23 8 -36 7 -59 -5 -16 -8 -36 -15 -45 -15 -8 0 -21 -6 -28 -12 -10 -11 -12
-10 -10 2 2 8 -2 31 -9 51 -12 34 -17 37 -103 64 -49 15 -88 29 -86 31 2 2 43
-8 92 -22 115 -34 115 -34 110 124 l-4 117 9 -95 c5 -52 11 -104 13 -115z
m18393 168 c-8 -15 -15 -25 -16 -21 0 12 23 58 27 54 3 -2 -2 -17 -11 -33z
m-19226 17 c8 -5 11 -10 5 -10 -5 0 -17 5 -25 10 -8 5 -10 10 -5 10 6 0 17 -5
25 -10z m3165 0 c-3 -5 -18 -9 -33 -9 l-27 1 30 8 c17 4 31 8 33 9 2 0 0 -3
-3 -9z m-3035 -40 c18 -12 2 -12 -25 0 -13 6 -15 9 -5 9 8 0 22 -4 30 -9z
m764 -24 c-3 -15 -8 -25 -11 -23 -2 3 -1 17 3 31 3 15 8 25 11 23 2 -3 1 -17
-3 -31z m1993 28 c-3 -3 -12 -4 -19 -1 -8 3 -5 6 6 6 11 1 17 -2 13 -5z m-74
-11 c-7 -2 -19 -2 -25 0 -7 3 -2 5 12 5 14 0 19 -2 13 -5z m16383 -40 c-8 -15
-15 -25 -16 -21 0 12 23 58 27 54 3 -2 -2 -17 -11 -33z m-16553 20 c-7 -2 -21
-2 -30 0 -10 3 -4 5 12 5 17 0 24 -2 18 -5z m-8293 -29 c0 -2 -9 0 -20 6 -11
6 -20 13 -20 16 0 2 9 0 20 -6 11 -6 20 -13 20 -16z m8223 19 c-7 -2 -21 -2
-30 0 -10 3 -4 5 12 5 17 0 24 -2 18 -5z m-2248 -23 c13 -6 15 -9 5 -9 -8 0
-22 4 -30 9 -18 12 -2 12 25 0z m2072 4 c-3 -3 -12 -4 -19 -1 -8 3 -5 6 6 6
11 1 17 -2 13 -5z m-74 -11 c-7 -2 -19 -2 -25 0 -7 3 -2 5 12 5 14 0 19 -2 13
-5z m-1853 -40 c30 -11 31 -12 6 -8 -16 4 -43 13 -60 20 -23 11 -25 13 -6 8
14 -3 41 -12 60 -20z m1687 21 c-3 -3 -12 -4 -19 -1 -8 3 -5 6 6 6 11 1 17 -2
13 -5z m-7722 -14 c3 -6 -1 -7 -9 -4 -18 7 -21 14 -7 14 6 0 13 -4 16 -10z
m2315 0 c-8 -5 -19 -10 -25 -10 -5 0 -3 5 5 10 8 5 20 10 25 10 6 0 3 -5 -5
-10z m5328 3 c-10 -2 -26 -2 -35 0 -10 3 -2 5 17 5 19 0 27 -2 18 -5z m-70
-10 c-10 -2 -26 -2 -35 0 -10 3 -2 5 17 5 19 0 27 -2 18 -5z m-95 -10 c-7 -2
-19 -2 -25 0 -7 3 -2 5 12 5 14 0 19 -2 13 -5z m17249 -15 c-7 -7 -12 -8 -12
-2 0 14 12 26 19 19 2 -3 -1 -11 -7 -17z m-22492 2 c-8 -5 -19 -10 -25 -10 -5
0 -3 5 5 10 8 5 20 10 25 10 6 0 3 -5 -5 -10z m3885 0 l20 -9 -20 0 c-11 0
-27 4 -35 9 -13 9 -13 10 0 9 8 0 24 -4 35 -9z m1250 0 c-27 -5 -63 -8 -80 -8
-25 1 -23 2 10 8 22 4 58 7 80 7 38 0 37 0 -10 -7z m-132 -17 c-7 -2 -21 -2
-30 0 -10 3 -4 5 12 5 17 0 24 -2 18 -5z m-153 -19 c-47 -7 -98 -12 -115 -12
-40 1 120 25 165 25 19 0 -3 -5 -50 -13z m-205 -24 c-45 -9 -198 -21 -175 -14
22 6 150 21 185 22 24 0 23 -2 -10 -8z m17816 -17 c-12 -20 -14 -14 -5 12 4 9
9 14 11 11 3 -2 0 -13 -6 -23z m-24526 -1 c-3 -3 -11 0 -18 7 -9 10 -8 11 6 5
10 -3 15 -9 12 -12z m1785 -22 c-8 -5 -19 -10 -25 -10 -5 0 -3 5 5 10 8 5 20
10 25 10 6 0 3 -5 -5 -10z m-1680 -36 c0 -2 -9 0 -20 6 -11 6 -20 13 -20 16 0
2 9 0 20 -6 11 -6 20 -13 20 -16z m1600 6 c-8 -5 -19 -10 -25 -10 -5 0 -3 5 5
10 8 5 20 10 25 10 6 0 3 -5 -5 -10z m22791 -24 c-14 -36 -22 -33 -9 5 6 16
12 28 14 26 3 -2 0 -16 -5 -31z m-24311 -33 c0 -7 -39 17 -46 28 -3 6 5 3 20
-6 14 -10 26 -19 26 -22z m1440 27 c-8 -5 -22 -9 -30 -9 -10 0 -8 3 5 9 27 12
43 12 25 0z m4573 -4 c-10 -19 -358 -400 -381 -418 -9 -7 24 32 73 87 108 120
90 100 200 220 50 54 94 104 98 111 4 8 10 14 13 14 3 0 1 -6 -3 -14z m303
-22 c55 -20 112 -40 127 -46 15 -6 26 -12 24 -14 -4 -4 -182 58 -232 81 -53
24 -20 16 81 -21z m-6275 -21 c13 -17 13 -17 -6 -3 -11 8 -22 16 -24 17 -2 2
0 3 6 3 6 0 17 -8 24 -17z m5960 -30 c-11 -21 -20 -35 -21 -31 0 12 33 78 38
74 2 -2 -6 -21 -17 -43z m-5751 -90 c244 -145 228 -137 246 -118 12 12 26 15
48 11 89 -18 87 -18 72 -30 -7 -6 -16 -23 -18 -39 -5 -26 0 -30 98 -83 57 -31
104 -58 104 -61 0 -2 -47 21 -105 52 -58 31 -110 53 -116 50 -5 -4 -8 -21 -5
-38 l5 -32 -11 28 c-7 15 -19 27 -27 27 -26 1 -55 29 -67 63 -9 27 -38 48
-200 144 -104 61 -196 117 -204 123 -25 18 89 -43 180 -97z m990 97 c-8 -5
-19 -10 -25 -10 -5 0 -3 5 5 10 8 5 20 10 25 10 6 0 3 -5 -5 -10z m23031 -17
c-12 -20 -14 -14 -5 12 4 9 9 14 11 11 3 -2 0 -13 -6 -23z m-17650 -50 c71
-25 128 -48 125 -50 -3 -4 -257 85 -265 93 -11 10 21 0 140 -43z m-5541 8 c-8
-5 -26 -11 -40 -15 -21 -5 -20 -3 5 9 32 15 60 20 35 6z m4824 -160 c-43 -88
-79 -159 -81 -158 -2 2 24 62 58 133 33 71 67 144 75 163 8 19 17 32 19 29 3
-3 -29 -78 -71 -167z m11124 143 c2 -15 -4 -23 -18 -27 -23 -6 -36 13 -26 39
8 22 40 13 44 -12z m7215 -9 c-3 -9 -8 -14 -10 -11 -3 3 -2 9 2 15 9 16 15 13
8 -4z m-23273 -15 c-8 -5 -19 -10 -25 -10 -5 0 -3 5 5 10 8 5 20 10 25 10 6 0
3 -5 -5 -10z m-80 -30 c-8 -5 -22 -9 -30 -9 -10 0 -8 3 5 9 27 12 43 12 25 0z
m5930 -12 c10 -6 7 -7 -10 -2 -14 3 -32 11 -40 16 -10 6 -7 7 10 2 14 -3 32
-11 40 -16z m17386 -35 c-8 -15 -15 -25 -16 -21 0 12 23 58 27 54 3 -2 -2 -17
-11 -33z m-23401 18 c-6 -5 -21 -11 -35 -15 -21 -5 -20 -3 5 9 35 17 42 18 30
6z m6085 -6 c19 -7 28 -14 20 -14 -8 0 -28 6 -45 14 -39 17 -21 18 25 0z m95
-35 c28 -10 43 -19 35 -19 -14 0 -101 36 -90 38 3 1 28 -8 55 -19z m-6285 1
c-8 -5 -26 -11 -40 -15 -21 -5 -20 -3 5 9 32 15 60 20 35 6z m23476 -48 c-8
-15 -15 -25 -16 -21 0 12 23 58 27 54 3 -2 -2 -17 -11 -33z m-17106 17 c13 -8
13 -10 -2 -10 -9 0 -20 5 -23 10 -8 13 5 13 25 0z m-6640 -29 c-8 -5 -78 -11
-155 -14 -151 -6 -142 -2 25 12 152 12 148 12 130 2z m6750 -13 c10 -6 7 -7
-10 -2 -14 3 -32 11 -40 16 -10 6 -7 7 10 2 14 -3 32 -11 40 -16z m-7137 -15
c-13 -2 -33 -2 -45 0 -13 2 -3 4 22 4 25 0 35 -2 23 -4z m-176 -10 c-20 -2
-52 -2 -70 0 -17 2 0 4 38 4 39 0 53 -2 32 -4z m7393 -3 c8 -5 11 -10 5 -10
-5 0 -17 5 -25 10 -8 5 -10 10 -5 10 6 0 17 -5 25 -10z m-7532 -7 c-16 -2 -40
-2 -55 0 -16 2 -3 4 27 4 30 0 43 -2 28 -4z m24415 -18 c-3 -9 -8 -14 -10 -11
-3 3 -2 9 2 15 9 16 15 13 8 -4z m-24790 -2 c-13 -2 -33 -2 -45 0 -13 2 -3 4
22 4 25 0 35 -2 23 -4z m7987 -3 c8 -5 11 -10 5 -10 -5 0 -17 5 -25 10 -8 5
-10 10 -5 10 6 0 17 -5 25 -10z m-8132 -7 c-10 -2 -26 -2 -35 0 -10 3 -2 5 17
5 19 0 27 -2 18 -5z m8242 -35 c10 -6 7 -7 -10 -2 -14 3 -32 11 -40 16 -10 6
-7 7 10 2 14 -3 32 -11 40 -16z m-1911 -90 c-46 -50 -113 -121 -149 -158 -72
-73 -37 -33 120 138 56 61 105 112 107 112 3 0 -32 -41 -78 -92z m18572 55
c-12 -20 -14 -14 -5 12 4 9 9 14 11 11 3 -2 0 -13 -6 -23z m-23497 -53 l7 -25
-14 25 c-8 14 -17 36 -21 50 l-7 25 14 -25 c8 -14 17 -36 21 -50z m6916 60 c8
-5 11 -10 5 -10 -5 0 -17 5 -25 10 -8 5 -10 10 -5 10 6 0 17 -5 25 -10z
m-1746 -74 c-15 -31 -28 -55 -30 -53 -3 2 7 30 22 61 14 32 28 55 30 53 3 -3
-7 -30 -22 -61z m-4938 38 c18 -14 18 -14 -6 -3 -31 14 -36 19 -24 19 6 0 19
-7 30 -16z m6774 6 c8 -5 11 -10 5 -10 -5 0 -17 5 -25 10 -8 5 -10 10 -5 10 6
0 17 -5 25 -10z m-6650 -75 c0 -3 -22 6 -50 20 -27 14 -50 28 -50 30 0 3 23
-6 50 -20 28 -14 50 -28 50 -30z m6730 45 c8 -5 11 -10 5 -10 -5 0 -17 5 -25
10 -8 5 -10 10 -5 10 6 0 17 -5 25 -10z m-7056 -80 c5 -17 4 -20 -2 -10 -5 8
-13 26 -16 40 -5 17 -4 20 2 10 5 -8 13 -26 16 -40z m381 2 c-3 -3 -11 0 -18
7 -9 10 -8 11 6 5 10 -3 15 -9 12 -12z m6865 8 c8 -5 11 -10 5 -10 -5 0 -17 5
-25 10 -8 5 -10 10 -5 10 6 0 17 -5 25 -10z m-6790 -46 c0 -2 -13 2 -30 11
-16 9 -30 18 -30 21 0 2 14 -2 30 -11 17 -9 30 -18 30 -21z m4621 -33 c-17
-34 -33 -61 -36 -61 -3 0 10 29 27 65 18 35 34 63 36 61 2 -2 -11 -31 -27 -65z
m2349 14 c14 -8 21 -14 15 -14 -5 0 -21 6 -35 14 -14 8 -20 14 -15 14 6 0 21
-6 35 -14z m-6915 -13 c-3 -3 -11 0 -18 7 -9 10 -8 11 6 5 10 -3 15 -9 12 -12z
m-475 -27 c0 -5 -5 -3 -10 5 -5 8 -10 20 -10 25 0 6 5 3 10 -5 5 -8 10 -19 10
-25z m23331 -12 c-12 -20 -14 -14 -5 12 4 9 9 14 11 11 3 -2 0 -13 -6 -23z
m-23295 -90 c-4 -4 -36 73 -35 85 0 4 9 -13 20 -37 11 -24 18 -46 15 -48z
m549 77 c3 -6 -1 -7 -9 -4 -18 7 -21 14 -7 14 6 0 13 -4 16 -10z m4411 -46
c-4 -9 -9 -15 -11 -12 -3 3 -3 13 1 22 4 9 9 15 11 12 3 -3 3 -13 -1 -22z
m-4276 -29 c0 -3 -18 4 -40 15 -22 11 -40 23 -40 25 0 3 18 -4 40 -15 22 -11
40 -23 40 -25z m3870 -20 c-24 -25 -46 -45 -49 -45 -3 0 15 20 39 45 24 25 46
45 49 45 3 0 -15 -20 -39 -45z m3170 25 c8 -5 11 -10 5 -10 -5 0 -17 5 -25 10
-8 5 -10 10 -5 10 6 0 17 -5 25 -10z m15531 -13 c-10 -9 -11 -8 -5 6 3 10 9
15 12 12 3 -3 0 -11 -7 -18z m-22516 -25 c-3 -3 -11 0 -18 7 -9 10 -8 11 6 5
10 -3 15 -9 12 -12z m4181 -19 c-8 -15 -15 -25 -16 -21 0 12 23 58 27 54 3 -2
-2 -17 -11 -33z m-4886 -28 c0 -5 -5 -3 -10 5 -5 8 -10 20 -10 25 0 6 5 3 10
-5 5 -8 10 -19 10 -25z m780 9 c0 -2 -9 0 -20 6 -11 6 -20 13 -20 16 0 2 9 0
20 -6 11 -6 20 -13 20 -16z m3690 -7 c0 -2 -15 -16 -32 -33 l-33 -29 29 33
c28 30 36 37 36 29z m-3635 -25 c-3 -3 -11 0 -18 7 -9 10 -8 11 6 5 10 -3 15
-9 12 -12z m18080 8 c13 -5 14 -9 5 -9 -8 0 -24 4 -35 9 -13 5 -14 9 -5 9 8 0
24 -4 35 -9z m-14076 -57 c-11 -27 -25 -52 -31 -58 -7 -7 -7 -4 0 10 5 11 17
37 25 58 9 20 18 37 21 37 3 0 -4 -21 -15 -47z m-3944 19 c-3 -3 -11 0 -18 7
-9 10 -8 11 6 5 10 -3 15 -9 12 -12z m18125 8 c18 -12 2 -12 -25 0 -13 6 -15
9 -5 9 8 0 22 -4 30 -9z m-18990 -35 c0 -5 -5 -3 -10 5 -5 8 -10 20 -10 25 0
6 5 3 10 -5 5 -8 10 -19 10 -25z m19110 0 c19 -7 28 -13 20 -13 -8 0 -31 6
-50 13 -19 7 -28 13 -20 13 8 0 31 -6 50 -13z m-18175 -5 c3 -6 -1 -7 -9 -4
-18 7 -21 14 -7 14 6 0 13 -4 16 -10z m60 -38 c-3 -3 -11 0 -18 7 -9 10 -8 11
6 5 10 -3 15 -9 12 -12z m3290 -40 l-49 -47 44 51 c25 27 47 49 50 47 2 -2
-18 -25 -45 -51z m14950 48 c13 -5 14 -9 5 -9 -8 0 -24 4 -35 9 -13 5 -14 9
-5 9 8 0 24 -4 35 -9z m-19205 -45 c0 -5 -5 -3 -10 5 -5 8 -10 20 -10 25 0 6
5 3 10 -5 5 -8 10 -19 10 -25z m19257 29 c-3 -3 -12 -4 -19 -1 -8 3 -5 6 6 6
11 1 17 -2 13 -5z m73 -19 c19 -7 28 -13 20 -13 -8 0 -31 6 -50 13 -19 7 -28
13 -20 13 8 0 31 -6 50 -13z m-14604 -32 c-8 -15 -15 -25 -16 -21 0 12 23 58
27 54 3 -2 -2 -17 -11 -33z m-3631 -11 c-3 -3 -11 0 -18 7 -9 10 -8 11 6 5 10
-3 15 -9 12 -12z m18350 8 c13 -5 14 -9 5 -9 -8 0 -24 4 -35 9 -13 5 -14 9 -5
9 8 0 24 -4 35 -9z m95 -25 c19 -7 28 -13 20 -13 -8 0 -31 6 -50 13 -19 7 -28
13 -20 13 8 0 31 -6 50 -13z m-19501 -50 c0 -5 -6 1 -14 15 -8 14 -14 30 -14
35 0 6 6 -1 14 -15 8 -14 14 -29 14 -35z m4664 25 c-3 -11 -10 -23 -16 -27 -5
-3 -8 -2 -5 3 3 5 8 17 11 27 9 24 16 22 10 -3z m14977 -16 l35 -14 -35 6
c-19 4 -50 13 -70 20 l-35 14 35 -6 c19 -4 50 -13 70 -20z m7625 -8 c35 -18
41 -27 49 -68 19 -96 -28 -165 -118 -175 -44 -5 -79 8 -125 47 -20 17 -24 30
-24 86 -1 56 3 68 24 90 32 31 96 55 129 47 14 -3 43 -15 65 -27z m-23125 11
c0 -2 -15 -16 -32 -33 l-33 -29 29 33 c28 30 36 37 36 29z m15609 -33 c12 -11
-8 -10 -39 2 l-35 14 35 -6 c19 -4 37 -8 39 -10z m193 -7 c9 -7 20 -25 23 -39
5 -21 21 -31 91 -58 46 -18 82 -35 80 -37 -3 -3 -41 10 -85 27 -73 29 -83 31
-99 18 -29 -25 -60 -28 -86 -7 l-25 20 -108 -74 c-59 -41 -187 -127 -283 -192
-96 -65 -242 -164 -325 -220 -435 -295 -455 -308 -455 -301 0 3 93 69 158 111
9 6 45 31 81 56 36 25 140 95 231 157 628 423 695 470 698 489 2 15 -6 22 -39
32 -22 7 -39 14 -37 16 2 3 20 -1 40 -7 29 -9 40 -8 59 6 28 19 58 20 81 3z
m-15321 -30 c-10 -9 -11 -8 -5 6 3 10 9 15 12 12 3 -3 0 -11 -7 -18z m-4591
-22 c0 -5 -5 -3 -10 5 -5 8 -10 20 -10 25 0 6 5 3 10 -5 5 -8 10 -19 10 -25z
m1265 25 c3 -6 -1 -7 -9 -4 -18 7 -21 14 -7 14 6 0 13 -4 16 -10z m7470 -30
c3 -6 -1 -7 -9 -4 -18 7 -21 14 -7 14 6 0 13 -4 16 -10z m-4715 -3 c0 -2 -12
-14 -27 -28 l-28 -24 24 28 c23 25 31 32 31 24z m-3990 -72 c0 -5 -5 -3 -10 5
-5 8 -10 20 -10 25 0 6 5 3 10 -5 5 -8 10 -19 10 -25z m4496 -42 c-8 -15 -15
-25 -16 -21 0 12 23 58 27 54 3 -2 -2 -17 -11 -33z m15687 2 c37 -15 66 -29
63 -32 -4 -5 -147 54 -156 64 -6 7 2 4 93 -32z m-20144 -60 c0 -5 -6 1 -14 15
-8 14 -14 30 -14 35 0 6 6 -1 14 -15 8 -14 14 -29 14 -35z m20262 10 c19 -8
27 -14 19 -14 -14 0 -72 28 -59 29 4 0 22 -7 40 -15z m79 -30 c14 -8 21 -14
15 -14 -5 0 -21 6 -35 14 -14 8 -20 14 -15 14 6 0 21 -6 35 -14z m-20310 -60
c0 -5 -5 -3 -10 5 -5 8 -10 20 -10 25 0 6 5 3 10 -5 5 -8 10 -19 10 -25z
m20410 20 c14 -8 21 -14 15 -14 -5 0 -21 6 -35 14 -14 8 -20 14 -15 14 6 0 21
-6 35 -14z m-16049 -18 c-10 -9 -11 -8 -5 6 3 10 9 15 12 12 3 -3 0 -11 -7
-18z m16109 -7 c8 -5 11 -10 5 -10 -5 0 -17 5 -25 10 -8 5 -10 10 -5 10 6 0
17 -5 25 -10z m100 -40 c8 -5 11 -10 5 -10 -5 0 -17 5 -25 10 -8 5 -10 10 -5
10 6 0 17 -5 25 -10z m-20540 -35 c0 -5 -5 -3 -10 5 -5 8 -10 20 -10 25 0 6 5
3 10 -5 5 -8 10 -19 10 -25z m20600 10 c14 -8 21 -14 15 -14 -5 0 -21 6 -35
14 -14 8 -20 14 -15 14 6 0 21 -6 35 -14z m110 -45 c8 -5 11 -10 5 -10 -5 0
-17 5 -25 10 -8 5 -10 10 -5 10 6 0 17 -5 25 -10z m-11017 -14 c7 -17 -11 -36
-35 -36 -13 0 -18 8 -18 25 0 20 5 25 24 25 13 0 26 -6 29 -14z m-15510 -75
c33 -13 67 -70 67 -112 0 -80 -73 -148 -145 -135 -96 18 -141 127 -85 206 12
17 32 35 44 40 29 12 89 12 119 1z m10045 -16 c-6 -14 -13 -23 -15 -21 -5 5
15 46 22 46 3 0 -1 -11 -7 -25z m8437 -5 c634 -59 1257 -290 1773 -657 409
-291 772 -679 1022 -1093 165 -273 267 -504 381 -857 51 -160 109 -464 130
-683 13 -132 18 -431 10 -580 l-4 -75 334 1 c309 2 319 1 129 -6 -113 -4 -264
-8 -337 -9 l-131 -1 -7 -67 c-28 -310 -142 -748 -261 -1010 -8 -17 -14 -34
-14 -37 0 -4 -27 -63 -60 -131 -213 -441 -498 -815 -890 -1171 -78 -70 -301
-239 -407 -307 -57 -37 -103 -69 -103 -72 0 -3 37 -54 82 -113 156 -204 212
-277 293 -382 45 -58 126 -163 180 -235 141 -184 222 -291 338 -443 56 -73
113 -148 127 -166 14 -19 102 -135 197 -258 94 -122 257 -335 363 -473 232
-304 209 -273 358 -469 68 -88 129 -168 135 -176 7 -9 53 -69 102 -135 50 -66
93 -122 96 -125 3 -3 54 -68 112 -145 59 -77 162 -212 229 -301 68 -88 176
-230 240 -315 132 -172 186 -243 548 -714 349 -455 531 -693 566 -740 16 -22
31 -42 35 -45 6 -5 110 -144 144 -191 11 -15 90 -119 175 -230 381 -497 342
-453 388 -434 70 30 149 9 186 -47 16 -25 37 -138 26 -138 -4 0 -23 -15 -43
-34 -38 -36 -90 -51 -137 -41 -28 6 -31 2 -132 -167 -57 -95 -108 -182 -115
-193 -7 -11 -15 -27 -20 -35 -4 -8 -31 -55 -60 -103 -29 -48 -53 -90 -53 -94
0 -3 -10 -20 -23 -37 -13 -17 -34 -51 -46 -76 -13 -25 -35 -63 -50 -85 -14
-22 -35 -57 -46 -77 -11 -21 -23 -38 -27 -38 -14 0 -9 16 12 38 11 12 19 23
18 26 -2 2 26 52 62 112 36 59 67 112 68 116 2 4 -16 9 -40 10 l-43 1 49 6 48
6 53 90 c29 50 62 106 72 125 11 19 50 87 87 150 129 218 138 237 124 260 -7
11 -16 20 -19 20 -4 0 -12 20 -18 44 -6 24 -13 50 -16 58 -3 8 3 24 14 37 11
13 17 30 14 39 -4 9 -37 58 -74 107 -116 153 -538 705 -760 994 -131 171 -250
327 -267 350 -9 13 -35 47 -58 75 -22 28 -119 154 -215 280 -96 126 -216 284
-267 350 -50 67 -129 169 -174 228 -45 59 -86 104 -91 101 -6 -3 -7 -2 -4 4 3
5 -28 54 -69 109 -42 54 -101 133 -132 175 -31 41 -115 151 -187 243 -181 236
-282 367 -415 541 -63 83 -166 218 -230 301 -161 212 -280 367 -396 519 -55
72 -138 180 -184 240 -46 61 -88 115 -93 120 -4 6 -80 105 -167 220 -88 116
-184 241 -213 279 -28 38 -72 95 -97 127 -25 32 -66 86 -93 121 -26 35 -75
100 -110 144 -34 45 -131 172 -215 283 -85 111 -157 201 -161 201 -4 0 -11 -4
-16 -9 -29 -27 -371 -197 -495 -245 -52 -21 -111 -44 -130 -52 -113 -45 -421
-128 -594 -160 -325 -59 -775 -73 -1096 -34 -714 86 -1334 347 -1904 803 -248
199 -569 551 -727 797 -140 218 -163 257 -249 435 -98 202 -158 356 -234 605
-44 145 -101 457 -123 674 l-8 79 -60 14 c-166 38 -235 55 -285 68 -30 7 -82
19 -115 26 -33 6 -55 14 -48 16 6 2 119 -21 250 -51 131 -31 243 -56 248 -56
7 0 9 50 7 143 -7 243 24 575 77 822 29 135 40 177 88 334 261 846 841 1581
1618 2048 466 280 1014 458 1550 502 72 6 148 13 170 15 65 7 411 -2 530 -14z
m-12595 -35 c0 -5 -5 -3 -10 5 -5 8 -10 20 -10 25 0 6 5 3 10 -5 5 -8 10 -19
10 -25z m58 -160 c-3 -3 -9 2 -12 12 -6 14 -5 15 5 6 7 -7 10 -15 7 -18z
m3903 -218 c-10 -9 -11 -8 -5 6 3 10 9 15 12 12 3 -3 0 -11 -7 -18z m-28 -62
c-3 -9 -8 -14 -10 -11 -3 3 -2 9 2 15 9 16 15 13 8 -4z m-983 -20 c0 -18 -5
-25 -20 -25 -15 0 -20 7 -20 25 0 18 5 25 20 25 15 0 20 -7 20 -25z m19358
-58 c4 -22 -24 -33 -43 -17 -12 10 -13 16 -4 27 16 18 43 13 47 -10z m1332
-527 c8 -5 11 -10 5 -10 -5 0 -17 5 -25 10 -8 5 -10 10 -5 10 6 0 17 -5 25
-10z m-6306 -23 c8 -12 7 -21 -5 -32 -21 -21 -49 -9 -49 20 0 36 34 44 54 12z
m6386 -7 c8 -5 11 -10 5 -10 -5 0 -17 5 -25 10 -8 5 -10 10 -5 10 6 0 17 -5
25 -10z m90 -35 c14 -8 21 -14 15 -14 -5 0 -21 6 -35 14 -14 8 -20 14 -15 14
6 0 21 -6 35 -14z m90 -35 c8 -5 11 -10 5 -10 -5 0 -17 5 -25 10 -8 5 -10 10
-5 10 6 0 17 -5 25 -10z m180 -70 c8 -5 11 -10 5 -10 -5 0 -17 5 -25 10 -8 5
-10 10 -5 10 6 0 17 -5 25 -10z m80 -32 c10 -6 7 -7 -10 -2 -14 3 -32 11 -40
16 -10 6 -7 7 10 2 14 -3 32 -11 40 -16z m-16210 9 c0 -2 -15 -13 -32 -26
l-33 -22 28 25 c26 24 37 31 37 23z m16290 -39 c10 -6 7 -7 -10 -2 -14 3 -32
11 -40 16 -10 6 -7 7 10 2 14 -3 32 -11 40 -16z m100 -40 c10 -6 7 -7 -10 -2
-14 3 -32 11 -40 16 -10 6 -7 7 10 2 14 -3 32 -11 40 -16z m80 -30 c10 -6 7
-7 -10 -2 -14 3 -32 11 -40 16 -10 6 -7 7 10 2 14 -3 32 -11 40 -16z m-16620
-12 c0 -2 -8 -10 -17 -17 -16 -13 -17 -12 -4 4 13 16 21 21 21 13z m16710 -21
c39 -20 87 -28 95 -16 10 17 72 13 89 -5 9 -8 16 -32 16 -53 0 -35 6 -44 79
-107 44 -38 80 -73 80 -77 1 -5 -37 26 -84 67 -74 66 -89 75 -113 70 -15 -4
-29 -7 -32 -7 -3 -1 -15 4 -27 11 -16 9 -23 22 -23 43 0 26 -6 32 -47 49 -27
11 -61 27 -78 35 -25 13 -26 14 -5 9 14 -4 36 -12 50 -19z m-16800 -49 c0 -2
-8 -10 -17 -17 -16 -13 -17 -12 -4 4 13 16 21 21 21 13z m16870 -60 c0 -6 -93
-37 -97 -32 -2 2 15 11 39 19 47 17 58 19 58 13z m-16950 -10 c0 -2 -8 -10
-17 -17 -16 -13 -17 -12 -4 4 13 16 21 21 21 13z m-40 -30 c0 -2 -8 -10 -17
-17 -16 -13 -17 -12 -4 4 13 16 21 21 21 13z m16880 0 c0 -6 -93 -37 -97 -32
-2 2 15 11 39 19 47 17 58 19 58 13z m149 -55 c-7 -23 -14 -39 -16 -37 -2 2 1
23 7 46 6 23 14 40 16 37 3 -3 0 -24 -7 -46z m-17069 22 c0 -5 -17 -21 -38
-37 l-37 -28 35 35 c38 39 40 41 40 30z m16795 -13 c-27 -12 -43 -12 -25 0 8
5 22 9 30 9 10 0 8 -3 -5 -9z m-55 -19 c-8 -5 -26 -11 -40 -15 -21 -5 -20 -3
5 9 32 15 60 20 35 6z m-16820 -34 c0 -2 -12 -14 -27 -28 l-28 -24 24 28 c23
25 31 32 31 24z m16710 -6 c-8 -5 -26 -11 -40 -15 -21 -5 -20 -3 5 9 32 15 60
20 35 6z m769 -68 c2 -2 2 -5 -1 -8 -2 -3 -20 12 -39 33 l-34 37 35 -30 c19
-17 37 -31 39 -32z m-849 38 c-26 -15 -66 -24 -55 -13 6 5 19 12 30 15 32 8
41 7 25 -2z m479 -50 c-7 -23 -14 -39 -16 -37 -3 2 1 23 8 45 7 23 14 39 16
37 3 -2 -1 -23 -8 -45z m-17169 36 c0 -2 -10 -12 -22 -23 l-23 -19 19 23 c18
21 26 27 26 19z m16561 -32 c-18 -8 -36 -15 -40 -15 -13 1 45 29 59 29 8 0 0
-6 -19 -14z m-16621 -20 c-7 -9 -32 -30 -54 -47 -35 -26 -34 -24 9 15 52 48
67 58 45 32z m16555 -5 c-27 -12 -43 -12 -25 0 8 5 22 9 30 9 10 0 8 -3 -5 -9z
m1119 -35 c22 -19 37 -37 35 -39 -2 -3 -23 13 -46 35 -52 48 -43 51 11 4z
m-1204 6 c-8 -5 -26 -11 -40 -15 -21 -5 -20 -3 5 9 32 15 60 20 35 6z m734
-35 c-3 -15 -8 -25 -11 -23 -2 3 -1 17 3 31 3 15 8 25 11 23 2 -3 1 -17 -3
-31z m-844 -6 c-8 -5 -22 -9 -30 -9 -10 0 -8 3 5 9 27 12 43 12 25 0z m-16470
-13 c0 -2 -10 -12 -22 -23 l-23 -19 19 23 c18 21 26 27 26 19z m16410 -6 c-8
-5 -26 -11 -40 -15 -21 -5 -20 -3 5 9 32 15 60 20 35 6z m1460 -26 c19 -19 32
-35 29 -35 -3 0 -20 16 -39 35 -19 19 -32 35 -29 35 3 0 20 -16 39 -35z
m-7943 -7 c-3 -8 -6 -5 -6 6 -1 11 2 17 5 13 3 -3 4 -12 1 -19z m-9977 -1 c0
-2 -15 -16 -32 -33 l-33 -29 29 33 c28 30 36 37 36 29z m16350 -7 c-8 -5 -19
-10 -25 -10 -5 0 -3 5 5 10 8 5 20 10 25 10 6 0 3 -5 -5 -10z m981 -41 c-6
-16 -10 -18 -10 -7 -1 22 12 55 16 42 2 -6 -1 -22 -6 -35z m669 -14 c19 -19
32 -35 29 -35 -3 0 -20 16 -39 35 -19 19 -32 35 -29 35 3 0 20 -16 39 -35z
m-1760 15 c-8 -5 -19 -10 -25 -10 -5 0 -3 5 5 10 8 5 20 10 25 10 6 0 3 -5 -5
-10z m-16320 -25 c-7 -9 -15 -13 -19 -10 -3 3 1 10 9 15 21 14 24 12 10 -5z
m-10720 -65 c0 -8 -7 -26 -16 -38 -8 -12 -12 -27 -9 -33 5 -7 2 -7 -11 0 -11
5 -31 12 -45 15 -55 12 -54 85 1 113 22 11 28 9 52 -14 16 -15 28 -34 28 -43z
m26930 50 c-8 -5 -19 -10 -25 -10 -5 0 -3 5 5 10 8 5 20 10 25 10 6 0 3 -5 -5
-10z m-16250 -13 c0 -2 -10 -12 -22 -23 l-23 -19 19 23 c18 21 26 27 26 19z
m16180 -12 c-14 -8 -29 -14 -35 -14 -5 0 1 6 15 14 14 8 30 14 35 14 6 0 -1
-6 -15 -14z m1240 -45 c-6 -23 -13 -40 -15 -38 -2 2 1 23 7 46 6 24 13 41 15
38 2 -2 -1 -23 -7 -46z m793 14 c21 -20 37 -37 35 -39 -2 -2 -22 14 -45 36
-23 21 -39 39 -35 39 4 0 24 -17 45 -36z m-2108 6 c-3 -5 -12 -10 -18 -10 -7
0 -6 4 3 10 19 12 23 12 15 0z m-16155 -7 c0 -5 -13 -17 -28 -27 l-27 -19 24
26 c26 28 31 32 31 20z m10117 -25 c-3 -7 -5 -2 -5 12 0 14 2 19 5 13 2 -7 2
-19 0 -25z m-20640 16 c-3 -3 -12 -4 -19 -1 -8 3 -5 6 6 6 11 1 17 -2 13 -5z
m196 -21 c-7 -2 -19 -2 -25 0 -7 3 -2 5 12 5 14 0 19 -2 13 -5z m26377 -3 c-8
-5 -19 -10 -25 -10 -5 0 -3 5 5 10 8 5 20 10 25 10 6 0 3 -5 -5 -10z m-16115
-20 c-5 -7 -78 -68 -180 -149 -54 -43 15 21 92 85 90 75 98 81 88 64z m-9922
-7 c-7 -2 -21 -2 -30 0 -10 3 -4 5 12 5 17 0 24 -2 18 -5z m105 -10 c-10 -2
-26 -2 -35 0 -10 3 -2 5 17 5 19 0 27 -2 18 -5z m28257 -33 c10 -11 16 -20 13
-20 -3 0 -13 9 -23 20 -10 11 -16 20 -13 20 3 0 13 -9 23 -20z m-27912 3 c-7
-2 -19 -2 -25 0 -7 3 -2 5 12 5 14 0 19 -2 13 -5z m26971 -27 c-3 -15 -8 -25
-11 -23 -2 3 -1 17 3 31 3 15 8 25 11 23 2 -3 1 -17 -3 -31z m-26887 18 c-3
-3 -12 -4 -19 -1 -8 3 -5 6 6 6 11 1 17 -2 13 -5z m236 -21 c-7 -2 -19 -2 -25
0 -7 3 -2 5 12 5 14 0 19 -2 13 -5z m90 -10 c-7 -2 -21 -2 -30 0 -10 3 -4 5
12 5 17 0 24 -2 18 -5z m356 -23 c64 -6 184 -17 266 -25 83 -8 210 -20 282
-26 125 -11 222 -26 178 -28 -11 0 -117 8 -235 19 -118 11 -298 27 -400 36
-177 15 -286 31 -231 33 14 1 77 -4 140 -9z m18858 -22 c-3 -7 -5 -2 -5 12 0
14 2 19 5 13 2 -7 2 -19 0 -25z m8364 15 c13 -16 12 -17 -3 -4 -17 13 -22 21
-14 21 2 0 10 -8 17 -17z m-2871 -33 c-8 -5 -19 -10 -25 -10 -5 0 -3 5 5 10 8
5 20 10 25 10 6 0 3 -5 -5 -10z m-5503 -32 c-3 -7 -5 -2 -5 12 0 14 2 19 5 13
2 -7 2 -19 0 -25z m7324 -9 c-6 -16 -10 -18 -10 -7 -1 22 12 55 16 42 2 -6 -1
-22 -6 -35z m-17708 -11 c-60 -51 -73 -57 -23 -11 25 23 49 42 53 43 4 0 -9
-14 -30 -32z m18857 -3 c13 -14 21 -25 18 -25 -2 0 -15 11 -28 25 -13 14 -21
25 -18 25 2 0 15 -11 28 -25z m-22494 -54 c-4 -6 -16 -11 -27 -11 -21 0 -27
35 -6 43 16 6 41 -18 33 -32z m3518 -39 c-88 -79 -194 -163 -194 -153 0 6 3
11 8 11 4 0 54 41 112 90 106 89 150 121 74 52z m10476 -37 c-7 -36 -14 -64
-17 -62 -2 3 2 34 8 71 7 36 14 64 17 61 2 -2 -1 -34 -8 -70z m7317 43 c-3 -8
-6 -5 -6 6 -1 11 2 17 5 13 3 -3 4 -12 1 -19z m-27839 -23 c-3 -3 -9 2 -12 12
-6 14 -5 15 5 6 7 -7 10 -15 7 -18z m4412 -60 c0 -15 -27 -28 -41 -19 -13 8
-11 42 4 47 15 5 37 -11 37 -28z m23390 -42 c-11 -17 -11 -17 -6 0 3 10 6 24
7 30 0 9 2 9 5 0 3 -7 0 -20 -6 -30z m-7311 -87 c-7 -36 -15 -64 -17 -61 -2 2
1 34 8 70 7 36 15 64 17 61 3 -3 0 -34 -8 -70z m-10649 40 c0 -4 -207 -178
-340 -286 -30 -25 -60 -49 -66 -55 -6 -5 -68 -57 -138 -114 -126 -104 -126
-105 -120 -140 4 -20 9 -39 13 -42 3 -4 69 -21 146 -38 185 -42 187 -43 182
-47 -4 -4 -241 47 -304 65 -40 12 -73 -8 -67 -41 l5 -23 -10 23 c-6 12 -18 22
-28 22 -33 0 -63 29 -63 60 0 27 -4 30 -100 61 -56 17 -99 34 -96 36 2 3 48
-10 103 -27 93 -30 99 -31 125 -15 15 9 37 13 50 10 20 -5 80 41 363 274 187
154 341 281 343 281 1 0 2 -2 2 -4z m17930 -53 c-11 -17 -11 -17 -6 0 3 10 6
24 7 30 0 9 2 9 5 0 3 -7 0 -20 -6 -30z m-30 -108 c-16 -47 -23 -40 -8 8 6 20
13 35 16 33 2 -3 -1 -21 -8 -41z m-7280 -40 c-7 -36 -15 -64 -17 -61 -3 3 0
35 7 71 7 36 15 64 17 61 3 -3 0 -35 -7 -71z m13635 5 c61 -38 82 -118 45
-177 -33 -55 -113 -80 -172 -52 -33 15 -68 70 -70 110 -4 106 109 174 197 119z
m-13673 -213 c-11 -56 -26 -133 -33 -172 -7 -38 -14 -64 -17 -56 -2 7 11 93
29 189 19 97 35 168 37 158 2 -9 -5 -63 -16 -119z m7275 111 c-3 -8 -6 -5 -6
6 -1 11 2 17 5 13 3 -3 4 -12 1 -19z m-27 -85 c-11 -17 -11 -17 -6 0 3 10 6
24 7 30 0 9 2 9 5 0 3 -7 0 -20 -6 -30z m-19260 7 c13 -9 13 -10 0 -10 -8 0
-22 5 -30 10 -13 9 -13 10 0 10 8 0 22 -5 30 -10z m95 -30 c13 -5 14 -9 5 -9
-8 0 -24 4 -35 9 -13 5 -14 9 -5 9 8 0 24 -4 35 -9z m152 -46 c46 -14 83 -27
81 -29 -4 -4 -121 28 -158 43 -45 19 -9 12 77 -14z m18984 -35 c-5 -13 -10
-19 -10 -12 -1 15 10 45 15 40 3 -2 0 -15 -5 -28z m-18803 -24 c10 -9 -33 -5
-48 5 -11 8 -8 9 14 6 16 -3 31 -8 34 -11z m14830 -38 c4 -20 -25 -34 -40 -19
-15 15 -1 44 19 40 10 -2 19 -11 21 -21z m6290 -5 c6 -18 -15 -14 -22 4 -4 10
-1 14 6 12 6 -2 14 -10 16 -16z m-9602 -210 c-8 -42 -24 -131 -36 -197 -12
-66 -27 -149 -35 -185 -29 -141 -29 -166 -1 -196 l25 -28 171 43 c94 24 173
41 176 39 5 -6 -36 -18 -210 -59 -115 -28 -139 -37 -146 -54 -5 -12 -19 -29
-33 -38 -25 -16 -25 -17 -11 -69 7 -29 13 -64 13 -78 -1 -21 -9 4 -34 117 -3
12 -13 24 -23 27 -11 4 -25 18 -32 31 -12 22 -21 25 -69 27 l-56 1 57 6 c46 5
60 11 78 34 12 15 27 27 34 27 14 0 20 29 81 355 52 280 59 312 63 292 2 -10
-3 -53 -12 -95z m-15919 36 c-3 -7 -5 -2 -5 12 0 14 2 19 5 13 2 -7 2 -19 0
-25z m4736 -78 l7 -45 -15 50 c-8 28 -14 57 -14 65 1 26 16 -22 22 -70z m495
54 c62 -14 111 -29 108 -32 -5 -4 -169 30 -226 48 -55 18 11 9 118 -16z m300
-71 c62 -14 110 -28 107 -31 -5 -5 -164 30 -245 54 -67 20 0 9 138 -23z m-759
-128 l0 -20 -8 20 c-5 11 -11 38 -14 60 l-6 40 14 -40 c7 -22 14 -49 14 -60z
m986 74 c36 -14 -25 -9 -70 6 l-40 14 45 -6 c25 -3 54 -9 65 -14z m155 -34
c30 -8 116 -28 190 -45 74 -17 171 -40 215 -50 44 -11 150 -36 235 -56 194
-45 219 -52 198 -53 -9 -1 -112 22 -230 50 -117 28 -224 53 -238 55 -14 3 -79
18 -145 34 -66 15 -173 40 -237 55 -65 15 -118 29 -118 31 0 6 58 -4 130 -21z
m11840 1 c0 -2 -11 -6 -25 -8 -13 -3 -22 -1 -19 3 5 9 44 13 44 5z m-243 -62
c-3 -3 -12 -4 -19 -1 -8 3 -5 6 6 6 11 1 17 -2 13 -5z m-160 -40 c-3 -3 -12
-4 -19 -1 -8 3 -5 6 6 6 11 1 17 -2 13 -5z m-12549 -64 c0 -9 -3 -7 -8 5 -5
11 -8 29 -8 40 0 16 2 15 8 -5 4 -14 8 -32 8 -40z m12429 34 c-3 -3 -12 -4
-19 -1 -8 3 -5 6 6 6 11 1 17 -2 13 -5z m-17210 -66 c-2 -13 -4 -5 -4 17 -1
22 1 32 4 23 2 -10 2 -28 0 -40z m17103 42 c-8 -5 -22 -9 -30 -9 -10 0 -8 3 5
9 27 12 43 12 25 0z m-150 -40 c-34 -11 -60 -11 -35 0 11 5 29 8 40 8 16 0 15
-2 -5 -8z m-10027 -47 c59 -14 106 -27 104 -29 -6 -7 -223 41 -258 56 -21 9
-19 9 11 4 19 -3 84 -17 143 -31z m9902 17 c-11 -5 -29 -8 -40 -8 -16 0 -15 2
5 8 34 11 60 11 35 0z m-12028 -42 c-3 -8 -6 -5 -6 6 -1 11 2 17 5 13 3 -3 4
-12 1 -19z m11908 13 c-11 -5 -36 -11 -55 -14 -35 -6 -34 -6 5 8 43 14 84 19
50 6z m-16698 -93 c-2 -18 -4 -6 -4 27 0 33 2 48 4 33 2 -15 2 -42 0 -60z
m16558 57 c-22 -8 -49 -13 -60 -13 -11 0 0 6 25 13 59 17 87 17 35 0z m-120
-30 c-22 -8 -49 -13 -60 -13 -11 0 0 6 25 13 59 17 87 17 35 0z m-160 -41
c-27 -7 -57 -13 -65 -13 -21 1 70 27 95 27 11 0 -2 -6 -30 -14z m-11448 -66
c-3 -8 -6 -5 -6 6 -1 11 2 17 5 13 3 -3 4 -12 1 -19z m-4820 -75 c-2 -16 -4
-5 -4 22 0 28 2 40 4 28 2 -13 2 -35 0 -50z m10 -180 c-2 -16 -4 -3 -4 27 0
30 2 43 4 28 2 -16 2 -40 0 -55z m15811 -148 l0 -30 -8 27 c-4 15 -10 51 -13
80 l-6 53 14 -50 c7 -27 13 -63 13 -80z m-15796 2 c2 -75 6 -91 23 -102 39
-27 45 -36 45 -62 0 -31 -26 -63 -51 -63 -19 0 -30 -54 -49 -240 -6 -58 -13
-112 -15 -120 -3 -8 -9 -67 -15 -130 -5 -63 -12 -125 -14 -138 -3 -13 -12 -89
-21 -170 -9 -81 -19 -149 -22 -152 -7 -7 5 125 23 265 8 61 16 134 18 163 3
30 10 95 15 145 44 371 44 374 22 396 -29 29 -26 58 7 89 27 27 27 28 22 124
-3 53 -2 94 2 90 3 -4 8 -47 10 -95z m17559 -98 c13 -42 -2 -119 -27 -140 -8
-6 -14 -17 -14 -24 0 -9 -21 -12 -77 -10 -124 4 -122 3 -144 65 -10 30 -19 67
-19 82 0 15 -4 28 -8 28 -5 0 -9 7 -9 15 0 8 4 12 8 9 4 -2 23 11 42 30 20 20
53 39 78 46 24 7 51 15 59 19 20 11 97 -71 111 -120z m-1754 39 c-3 -8 -6 -5
-6 6 -1 11 2 17 5 13 3 -3 4 -12 1 -19z m21 -98 l0 -25 -8 25 c-4 14 -8 36 -8
50 l0 25 8 -25 c4 -14 8 -36 8 -50z m9 -62 c-3 -7 -5 -2 -5 12 0 14 2 19 5 13
2 -7 2 -19 0 -25z m21 -88 c0 -22 -1 -22 -8 5 -4 17 -8 39 -8 50 0 16 2 15 8
-5 4 -14 8 -36 8 -50z m3009 8 c-3 -8 -6 -5 -6 6 -1 11 2 17 5 13 3 -3 4 -12
1 -19z m-15031 -45 c45 -50 58 -85 58 -155 1 -41 -3 -67 -9 -65 -6 1 -24 -8
-40 -20 -31 -21 -84 -36 -140 -37 -26 -1 -33 6 -62 61 -18 34 -33 69 -33 77 0
9 -4 16 -10 16 -5 0 -10 7 -10 15 0 8 4 15 9 15 6 0 18 13 27 29 26 44 67 70
126 80 29 5 54 9 56 10 2 0 14 -11 28 -26z m12031 -15 c-3 -8 -6 -5 -6 6 -1
11 2 17 5 13 3 -3 4 -12 1 -19z m-13290 -20 c-3 -8 -6 -5 -6 6 -1 11 2 17 5
13 3 -3 4 -12 1 -19z m2422 13 c17 -11 7 -41 -13 -41 -19 0 -29 17 -22 35 6
17 15 18 35 6z m10878 -53 c-3 -8 -6 -5 -6 6 -1 11 2 17 5 13 3 -3 4 -12 1
-19z m16 -63 c5 -28 4 -34 -3 -20 -8 19 -14 73 -6 64 2 -2 6 -22 9 -44z m2944
13 c-3 -8 -6 -5 -6 6 -1 11 2 17 5 13 3 -3 4 -12 1 -19z m-10 -40 c-3 -8 -6
-5 -6 6 -1 11 2 17 5 13 3 -3 4 -12 1 -19z m8398 -78 c10 -11 16 -20 13 -20
-3 0 -13 9 -23 20 -10 11 -16 20 -13 20 3 0 13 -9 23 -20z m-11297 -75 c0 -16
-2 -15 -8 5 -4 14 -8 34 -8 45 0 16 2 15 8 -5 4 -14 8 -34 8 -45z m2879 33
c-3 -8 -6 -5 -6 6 -1 11 2 17 5 13 3 -3 4 -12 1 -19z m-10 -50 c-3 -7 -5 -2
-5 12 0 14 2 19 5 13 2 -7 2 -19 0 -25z m8508 12 c10 -11 16 -20 13 -20 -3 0
-13 9 -23 20 -10 11 -16 20 -13 20 3 0 13 -9 23 -20z m-29373 -39 c50 -23 129
-92 110 -99 -6 -2 -12 -16 -12 -32 0 -42 -17 -81 -53 -117 -51 -54 -130 -42
-209 29 l-36 33 12 57 c14 66 42 102 101 129 22 10 41 19 42 19 1 0 21 -9 45
-19z m29453 -41 c10 -11 16 -20 13 -20 -3 0 -13 9 -23 20 -10 11 -16 20 -13
20 3 0 13 -9 23 -20z m-11438 -32 c-3 -8 -6 -5 -6 6 -1 11 2 17 5 13 3 -3 4
-12 1 -19z m-13270 -20 c-3 -7 -5 -2 -5 12 0 14 2 19 5 13 2 -7 2 -19 0 -25z
m16100 0 c-3 -7 -5 -2 -5 12 0 14 2 19 5 13 2 -7 2 -19 0 -25z m8654 5 c13
-16 12 -17 -3 -4 -17 13 -22 21 -14 21 2 0 10 -8 17 -17z m-11474 -25 c-3 -8
-6 -5 -6 6 -1 11 2 17 5 13 3 -3 4 -12 1 -19z m2810 -30 c-3 -7 -5 -2 -5 12 0
14 2 19 5 13 2 -7 2 -19 0 -25z m-10 -50 c-3 -8 -6 -5 -6 6 -1 11 2 17 5 13 3
-3 4 -12 1 -19z m8788 -8 c10 -11 16 -20 13 -20 -3 0 -13 9 -23 20 -10 11 -16
20 -13 20 3 0 13 -9 23 -20z m-24838 -12 c-3 -8 -6 -5 -6 6 -1 11 2 17 5 13 3
-3 4 -12 1 -19z m16040 -40 c-3 -7 -5 -2 -5 12 0 14 2 19 5 13 2 -7 2 -19 0
-25z m-16030 0 c-3 -8 -6 -5 -6 6 -1 11 2 17 5 13 3 -3 4 -12 1 -19z m16018
-68 c-4 -23 -9 -39 -11 -37 -3 2 -2 23 2 46 4 23 9 40 11 37 3 -3 2 -23 -2
-46z m-15988 -52 c-3 -8 -6 -5 -6 6 -1 11 2 17 5 13 3 -3 4 -12 1 -19z m15970
-40 c-3 -8 -6 -5 -6 6 -1 11 2 17 5 13 3 -3 4 -12 1 -19z m-12 -73 c-3 -26 -8
-45 -11 -43 -2 3 -1 26 2 52 4 25 9 44 12 42 2 -3 1 -26 -3 -51z m-18835 -131
c-7 -63 -15 -113 -17 -110 -3 2 0 53 6 112 6 59 11 115 12 123 0 12 2 12 6 3
3 -8 0 -65 -7 -128z m2919 86 c0 -9 -4 -8 -9 5 -5 11 -9 27 -9 35 0 9 4 8 9
-5 5 -11 9 -27 9 -35z m15898 -52 c-3 -7 -5 -2 -5 12 0 14 2 19 5 13 2 -7 2
-19 0 -25z m-15869 -78 c0 -9 -3 -7 -8 5 -5 11 -8 29 -8 40 0 16 2 15 8 -5 4
-14 8 -32 8 -40z m15859 38 c-3 -8 -6 -5 -6 6 -1 11 2 17 5 13 3 -3 4 -12 1
-19z m-5 -48 c-2 -17 -8 -32 -12 -35 -7 -5 -5 18 6 53 7 23 11 12 6 -18z m-15
-72 c-3 -8 -6 -5 -6 6 -1 11 2 17 5 13 3 -3 4 -12 1 -19z m-15809 -43 c0 -16
-2 -15 -8 5 -11 34 -11 60 0 35 5 -11 8 -29 8 -40z m-3008 -82 c-11 -112 -20
-156 -20 -102 0 41 23 229 28 224 2 -2 -1 -57 -8 -122z m18784 -59 c-16 -86
-30 -151 -32 -145 -5 14 50 312 56 306 2 -2 -8 -75 -24 -161z m-15735 -19 l0
-20 -8 20 c-5 11 -11 38 -14 60 l-6 40 14 -40 c7 -22 14 -49 14 -60z m-3072
-112 c-3 -10 -5 -2 -5 17 0 19 2 27 5 18 2 -10 2 -26 0 -35z m3101 -18 c0 -16
-2 -15 -8 5 -4 14 -8 34 -8 45 0 16 2 15 8 -5 4 -14 8 -34 8 -45z m25570 37
c7 -5 16 -23 21 -40 8 -28 6 -34 -16 -52 -31 -24 -56 -26 -77 -5 -25 25 -29
54 -12 80 17 25 57 33 84 17z m-6252 -61 c-9 -14 -33 -14 -41 -1 -4 6 -1 18 6
26 11 13 14 13 27 0 8 -8 11 -19 8 -25z m-22431 -76 c-4 -42 -10 -74 -12 -71
-3 2 -2 39 2 81 4 42 10 74 12 71 3 -2 2 -39 -2 -81z m18782 53 c-3 -7 -5 -2
-5 12 0 14 2 19 5 13 2 -7 2 -19 0 -25z m-15660 0 c-3 -8 -6 -5 -6 6 -1 11 2
17 5 13 3 -3 4 -12 1 -19z m21 -73 c0 -16 -2 -15 -8 5 -11 34 -11 60 0 35 5
-11 8 -29 8 -40z m15658 0 c13 -13 24 -33 24 -45 0 -28 -46 -74 -66 -66 -9 3
-21 6 -27 6 -7 0 -20 11 -29 24 -24 33 -8 81 33 95 17 6 29 18 30 28 1 17 2
17 6 0 3 -10 15 -29 29 -42z m2062 48 c-10 -2 -26 -2 -35 0 -10 3 -2 5 17 5
19 0 27 -2 18 -5z m-571 -19 c-3 -3 -12 -4 -19 -1 -8 3 -5 6 6 6 11 1 17 -2
13 -5z m-144 -11 c-24 -2 -62 -2 -85 0 -24 2 -5 4 42 4 47 0 66 -2 43 -4z
m-230 -10 c-18 -2 -48 -2 -65 0 -18 2 -4 4 32 4 36 0 50 -2 33 -4z m-255 -10
c-15 -2 -42 -2 -60 0 -18 2 -6 4 27 4 33 0 48 -2 33 -4z m-288 -14 c-74 -3
-178 -6 -230 -6 l-95 1 110 6 c61 3 164 6 230 6 l120 1 -135 -8z m-16223 -31
c-3 -8 -6 -5 -6 6 -1 11 2 17 5 13 3 -3 4 -12 1 -19z m15816 15 c-23 -2 -64
-2 -90 0 -26 2 -7 3 42 3 50 0 71 -1 48 -3z m-296 -19 c-3 -3 -12 -4 -19 -1
-8 3 -5 6 6 6 11 1 17 -2 13 -5z m-129 -11 c-43 -2 -113 -2 -155 0 -43 1 -8 3
77 3 85 0 120 -2 78 -3z m-15360 -98 c0 -11 -6 -2 -13 20 -8 22 -13 49 -13 60
0 11 6 2 13 -20 8 -22 13 -49 13 -60z m14870 88 c-43 -2 -113 -2 -155 0 -43 1
-8 3 77 3 85 0 120 -2 78 -3z m-405 -10 c-29 -2 -78 -2 -110 0 -32 2 -8 3 52
3 61 0 87 -1 58 -3z m-17666 -35 c-3 -7 -5 -2 -5 12 0 14 2 19 5 13 2 -7 2
-19 0 -25z m16433 12 c0 -24 -26 -38 -42 -22 -16 16 -2 42 22 42 13 0 20 -7
20 -20z m2390 -91 c0 -9 6 -34 13 -55 18 -52 30 -100 23 -93 -7 7 -66 200 -65
214 1 15 28 -48 29 -66z m7250 62 c0 -14 -18 -23 -30 -16 -6 4 -8 11 -5 16 8
12 35 12 35 0z m-26083 -73 c-3 -7 -5 -2 -5 12 0 14 2 19 5 13 2 -7 2 -19 0
-25z m3241 -83 c0 -11 -6 3 -14 30 -7 28 -13 55 -13 60 2 17 27 -69 27 -90z
m-3251 -12 c-3 -10 -5 -2 -5 17 0 19 2 27 5 18 2 -10 2 -26 0 -35z m3260 -35
c-3 -8 -6 -5 -6 6 -1 11 2 17 5 13 3 -3 4 -12 1 -19z m-3270 -30 c-3 -7 -5 -2
-5 12 0 14 2 19 5 13 2 -7 2 -19 0 -25z m18644 9 c-10 -9 -11 -8 -5 6 3 10 9
15 12 12 3 -3 0 -11 -7 -18z m-15358 -27 c3 -14 8 -38 11 -55 6 -28 6 -28 -4
-6 -12 27 -25 99 -17 91 3 -3 8 -17 10 -30z m15636 -55 l0 -20 -8 20 c-4 11
-11 34 -14 50 l-6 30 14 -30 c8 -16 14 -39 14 -50z m-15572 -95 c35 0 63 -27
63 -59 0 -29 -58 3 630 -347 201 -103 370 -191 375 -196 6 -5 -219 105 -499
245 -507 253 -510 254 -537 238 -28 -16 -28 -18 -24 -91 l4 -75 -12 77 c-10
64 -17 80 -39 98 l-27 21 -107 -31 c-59 -17 -111 -29 -116 -28 -6 2 28 14 73
27 145 39 150 42 164 85 8 22 12 53 9 70 l-4 31 10 -32 c8 -26 16 -33 37 -33z
m15602 -10 c0 -9 -4 -8 -9 5 -5 11 -9 27 -9 35 0 9 4 8 9 -5 5 -11 9 -27 9
-35z m-18972 -7 c-3 -10 -5 -4 -5 12 0 17 2 24 5 18 2 -7 2 -21 0 -30z m-10
-80 c-3 -10 -5 -2 -5 17 0 19 2 27 5 18 2 -10 2 -26 0 -35z m19021 -43 c0 -8
-6 1 -13 20 -7 19 -13 42 -13 50 0 8 6 -1 13 -20 7 -19 13 -42 13 -50z
m-16002 -31 c-33 -11 -61 -17 -63 -15 -6 5 86 34 107 34 8 0 -12 -9 -44 -19z
m-8454 -74 c6 -28 -45 -74 -76 -68 -42 8 -60 77 -28 106 40 36 92 17 104 -38z
m8363 46 c-11 -5 -36 -11 -55 -14 -35 -6 -34 -6 5 8 43 14 84 19 50 6z m-140
-40 c-11 -5 -36 -11 -55 -14 -35 -6 -34 -6 5 8 43 14 84 19 50 6z m-2808 -53
c-3 -7 -5 -2 -5 12 0 14 2 19 5 13 2 -7 2 -19 0 -25z m2703 22 c-8 -5 -24 -9
-35 -9 l-20 0 20 9 c11 5 27 9 35 9 13 1 13 0 0 -9z m-120 -35 c-19 -7 -42
-13 -50 -13 -8 0 1 6 20 13 19 7 42 13 50 13 8 0 -1 -6 -20 -13z m837 -32 c-3
-10 -5 -2 -5 17 0 19 2 27 5 18 2 -10 2 -26 0 -35z m-3430 -15 c-3 -8 -6 -5
-6 6 -1 11 2 17 5 13 3 -3 4 -12 1 -19z m2450 6 c-3 -3 -12 -4 -19 -1 -8 3 -5
6 6 6 11 1 17 -2 13 -5z m-87 -24 c-8 -5 -22 -9 -30 -9 -10 0 -8 3 5 9 27 12
43 12 25 0z m1088 -120 c0 -32 -1 -32 -9 10 -4 25 -7 61 -7 80 0 32 1 32 9
-10 4 -25 7 -61 7 -80z m-1311 54 c-3 -3 -12 -4 -19 -1 -8 3 -5 6 6 6 11 1 17
-2 13 -5z m-122 -34 c-27 -12 -43 -12 -25 0 8 5 22 9 30 9 10 0 8 -3 -5 -9z
m1442 -117 c-3 -10 -5 -4 -5 12 0 17 2 24 5 18 2 -7 2 -21 0 -30z m-3490 -35
c-3 -8 -6 -5 -6 6 -1 11 2 17 5 13 3 -3 4 -12 1 -19z m3511 -118 c0 -32 -1
-32 -9 10 -4 25 -7 61 -7 80 0 32 1 32 9 -10 4 -25 7 -61 7 -80z m1068 104
c18 -14 18 -14 -6 -3 -31 14 -36 19 -24 19 6 0 19 -7 30 -16z m49 -24 c3 -6
-1 -7 -9 -4 -18 7 -21 14 -7 14 6 0 13 -4 16 -10z m14615 -25 c0 -5 -5 -3 -10
5 -5 8 -10 20 -10 25 0 6 5 3 10 -5 5 -8 10 -19 10 -25z m-14535 -15 c3 -6 -1
-7 -9 -4 -18 7 -21 14 -7 14 6 0 13 -4 16 -10z m80 -48 c-3 -3 -11 0 -18 7 -9
10 -8 11 6 5 10 -3 15 -9 12 -12z m-1268 -84 c-3 -7 -5 -2 -5 12 0 14 2 19 5
13 2 -7 2 -19 0 -25z m10 -85 c-3 -10 -5 -4 -5 12 0 17 2 24 5 18 2 -7 2 -21
0 -30z m-6709 -4 c-2 -6 -8 -10 -13 -10 -5 0 -11 4 -13 10 -2 6 4 11 13 11 9
0 15 -5 13 -11z m6719 -81 c-2 -13 -4 -5 -4 17 -1 22 1 32 4 23 2 -10 2 -28 0
-40z m1868 -38 c0 -28 -27 -39 -51 -19 -13 10 -12 14 3 31 23 25 48 19 48 -12z
m-1858 -37 c-3 -10 -5 -2 -5 17 0 19 2 27 5 18 2 -10 2 -26 0 -35z m-3591 -9
c-7 -19 -35 -18 -43 1 -3 9 2 22 13 30 16 11 20 11 27 -1 5 -9 6 -22 3 -30z
m3601 -86 c-3 -8 -6 -5 -6 6 -1 11 2 17 5 13 3 -3 4 -12 1 -19z m10 -85 c-3
-10 -5 -2 -5 17 0 19 2 27 5 18 2 -10 2 -26 0 -35z m10 -80 c-3 -10 -5 -2 -5
17 0 19 2 27 5 18 2 -10 2 -26 0 -35z m20 -175 c-3 -7 -5 -2 -5 12 0 14 2 19
5 13 2 -7 2 -19 0 -25z m20753 -67 c29 -16 37 -27 49 -72 14 -57 13 -61 -31
-146 -19 -35 -105 -43 -166 -16 -20 9 -41 15 -45 14 -5 -1 -6 3 -3 8 4 5 1 11
-6 13 -8 3 -13 32 -15 84 l-2 80 40 25 c22 13 49 31 60 41 21 17 32 15 119
-31z m-20743 2 c-3 -10 -5 -4 -5 12 0 17 2 24 5 18 2 -7 2 -21 0 -30z m5068
-182 c-3 -5 3 -12 14 -16 11 -3 34 -22 51 -42 31 -34 32 -39 28 -104 -2 -42 0
-71 7 -73 5 -2 0 -5 -11 -5 -19 -1 -39 -24 -36 -41 1 -12 -121 -9 -157 4 -28
9 -43 10 -50 3 -8 -8 -11 -6 -11 6 0 9 -3 17 -7 17 -5 0 -9 31 -11 68 -3 81
29 166 63 169 11 0 40 6 65 11 61 13 62 13 55 3z m-5038 -73 c-3 -8 -6 -5 -6
6 -1 11 2 17 5 13 3 -3 4 -12 1 -19z m10 -70 c-3 -8 -6 -5 -6 6 -1 11 2 17 5
13 3 -3 4 -12 1 -19z m9220 -202 c-8 -21 -43 -20 -51 1 -10 26 23 48 42 29 8
-8 12 -22 9 -30z m6840 -102 c6 -16 -15 -37 -29 -28 -4 3 -8 14 -8 25 0 23 28
26 37 3z m-19680 -41 c-3 -10 -5 -4 -5 12 0 17 2 24 5 18 2 -7 2 -21 0 -30z
m10 -105 c-3 -7 -5 -2 -5 12 0 14 2 19 5 13 2 -7 2 -19 0 -25z m26793 -78 c0
-5 -7 -10 -16 -10 -8 0 -12 5 -9 10 3 6 10 10 16 10 5 0 9 -4 9 -10z m-20970
-55 c0 -5 -5 -3 -10 5 -5 8 -10 20 -10 25 0 6 5 3 10 -5 5 -8 10 -19 10 -25z
m40 -120 c0 -5 -5 -3 -10 5 -5 8 -10 20 -10 25 0 6 5 3 10 -5 5 -8 10 -19 10
-25z m-5843 -32 c-3 -10 -5 -4 -5 12 0 17 2 24 5 18 2 -7 2 -21 0 -30z m5873
-58 c0 -5 -5 -3 -10 5 -5 8 -10 20 -10 25 0 6 5 3 10 -5 5 -8 10 -19 10 -25z
m-5863 -62 c-2 -16 -4 -5 -4 22 0 28 2 40 4 28 2 -13 2 -35 0 -50z m5893 -28
c0 -5 -5 -3 -10 5 -5 8 -10 20 -10 25 0 6 5 3 10 -5 5 -8 10 -19 10 -25z
m15967 -11 c-3 -3 -12 -4 -19 -1 -8 3 -5 6 6 6 11 1 17 -2 13 -5z m-15960 -26
c-3 -8 -6 -5 -6 6 -1 11 2 17 5 13 3 -3 4 -12 1 -19z m16190 -34 c-3 -3 -12
-4 -19 -1 -8 3 -5 6 6 6 11 1 17 -2 13 -5z m2090 0 c-3 -3 -12 -4 -19 -1 -8 3
-5 6 6 6 11 1 17 -2 13 -5z m-24170 -26 c-3 -8 -6 -5 -6 6 -1 11 2 17 5 13 3
-3 4 -12 1 -19z m22120 16 c-3 -3 -12 -4 -19 -1 -8 3 -5 6 6 6 11 1 17 -2 13
-5z m-16197 -39 c0 -5 -5 -3 -10 5 -5 8 -10 20 -10 25 0 6 5 3 10 -5 5 -8 10
-19 10 -25z m16295 15 c13 -5 14 -9 5 -9 -8 0 -24 4 -35 9 -13 5 -14 9 -5 9 8
0 24 -4 35 -9z m1762 4 c-3 -3 -12 -4 -19 -1 -8 3 -5 6 6 6 11 1 17 -2 13 -5z
m-1670 -30 c-3 -3 -12 -4 -19 -1 -8 3 -5 6 6 6 11 1 17 -2 13 -5z m1496 -1
c-7 -2 -21 -2 -30 0 -10 3 -4 5 12 5 17 0 24 -2 18 -5z m-66 -9 c-3 -3 -12 -4
-19 -1 -8 3 -5 6 6 6 11 1 17 -2 13 -5z m-1292 -24 c13 -5 14 -9 5 -9 -8 0
-24 4 -35 9 -13 5 -14 9 -5 9 8 0 24 -4 35 -9z m1168 3 c-7 -2 -19 -2 -25 0
-7 3 -2 5 12 5 14 0 19 -2 13 -5z m-17664 -53 c0 -9 -4 -8 -9 5 -5 11 -9 27
-9 35 0 9 4 8 9 -5 5 -11 9 -27 9 -35z m17614 43 c-7 -2 -21 -2 -30 0 -10 3
-4 5 12 5 17 0 24 -2 18 -5z m-1066 -9 c-3 -3 -12 -4 -19 -1 -8 3 -5 6 6 6 11
1 17 -2 13 -5z m108 -24 l20 -9 -20 0 c-11 0 -29 4 -40 9 l-20 9 20 0 c11 0
29 -4 40 -9z m794 6 c-2 -2 -29 -6 -59 -9 -36 -4 -46 -3 -30 3 25 8 97 13 89
6z m-23392 -43 c-3 -10 -5 -4 -5 12 0 17 2 24 5 18 2 -7 2 -21 0 -30z m22650
21 c-3 -3 -12 -4 -19 -1 -8 3 -5 6 6 6 11 1 17 -2 13 -5z m600 0 c-3 -3 -12
-4 -19 -1 -8 3 -5 6 6 6 11 1 17 -2 13 -5z m-537 -14 c20 -6 21 -8 5 -8 -11 0
-29 3 -40 8 -25 11 1 11 35 0z m278 -6 c26 -18 29 -59 7 -91 -8 -12 -12 -30
-9 -40 5 -16 4 -16 -5 -2 -17 27 -61 33 -78 12 -14 -17 -14 -17 -5 1 11 23 -9
67 -35 78 -16 6 -16 7 -1 7 9 1 28 12 42 26 29 29 52 31 84 9z m200 9 c-10 -2
-26 -2 -35 0 -10 3 -2 5 17 5 19 0 27 -2 18 -5z m-65 -10 c-7 -2 -21 -2 -30 0
-10 3 -4 5 12 5 17 0 24 -2 18 -5z m-60 -10 c-7 -2 -19 -2 -25 0 -7 3 -2 5 12
5 14 0 19 -2 13 -5z m-266 -9 c-3 -3 -12 -4 -19 -1 -8 3 -5 6 6 6 11 1 17 -2
13 -5z m-16823 -54 c5 -17 4 -20 -2 -10 -5 8 -13 26 -16 40 -5 17 -4 20 2 10
5 -8 13 -26 16 -40z m16863 44 c-3 -3 -12 -4 -19 -1 -8 3 -5 6 6 6 11 1 17 -2
13 -5z m-22830 -106 c-2 -18 -4 -6 -4 27 0 33 2 48 4 33 2 -15 2 -42 0 -60z
m17066 69 c8 -20 -9 -41 -27 -34 -23 9 -21 47 3 47 10 0 21 -6 24 -13z
m-11064 -117 c0 -8 -7 1 -14 20 -18 46 -17 64 0 25 8 -16 14 -37 14 -45z
m16871 20 c-6 -11 -13 -20 -16 -20 -2 0 0 9 6 20 6 11 13 20 16 20 2 0 0 -9
-6 -20z m139 -70 c0 -9 -4 -8 -9 5 -5 11 -9 27 -9 35 0 9 4 8 9 -5 5 -11 9
-27 9 -35z m-169 20 c-6 -11 -13 -20 -16 -20 -2 0 0 9 6 20 6 11 13 20 16 20
2 0 0 -9 -6 -20z m-16821 -22 c6 -18 7 -28 2 -23 -10 12 -25 55 -18 55 3 0 10
-15 16 -32z m-6012 -25 c-3 -10 -5 -2 -5 17 0 19 2 27 5 18 2 -10 2 -26 0 -35z
m6057 -113 c5 -20 3 -19 -8 5 -7 17 -16 41 -20 55 -5 20 -3 19 8 -5 7 -16 16
-41 20 -55z m16706 40 c-6 -11 -13 -20 -16 -20 -2 0 0 9 6 20 6 11 13 20 16
20 2 0 0 -9 -6 -20z m279 -25 c0 -5 -4 -3 -9 5 -5 8 -9 22 -9 30 0 16 17 -16
18 -35z m-23014 -25 c8 0 24 -13 37 -30 12 -16 29 -30 37 -31 14 0 13 -1 -1
-7 -9 -4 -26 -20 -38 -35 -19 -24 -27 -27 -54 -22 -59 13 -75 67 -31 111 14
14 26 35 26 47 2 17 3 16 6 -5 2 -16 11 -28 18 -28z m23034 -35 c0 -5 -4 -3
-9 5 -5 8 -9 22 -9 30 0 16 17 -16 18 -35z m-16970 -65 c0 -9 -4 -8 -9 5 -5
11 -9 27 -9 35 0 9 4 8 9 -5 5 -11 9 -27 9 -35z m-5776 33 c-34 -2 -93 -2
-130 0 -37 2 -9 3 62 3 72 0 102 -1 68 -3z m617 -7 c19 -1 -77 -3 -215 -3
-137 0 -263 2 -280 6 -28 6 423 4 495 -3z m347 -12 c-3 -3 -12 -4 -19 -1 -8 3
-5 6 6 6 11 1 17 -2 13 -5z m2473 -39 c0 -16 -27 -27 -36 -14 -3 5 -3 16 0 24
6 17 36 9 36 -10z m2374 -71 c14 -44 30 -73 43 -79 46 -23 55 -38 50 -77 -5
-37 -3 -40 76 -110 45 -40 88 -80 97 -88 27 -25 181 -162 236 -210 29 -25 53
-49 53 -53 1 -7 -233 194 -249 214 -3 3 -56 51 -117 106 -104 91 -115 99 -147
95 -29 -3 -40 1 -61 24 -21 23 -39 30 -83 35 l-57 6 58 2 c51 1 63 5 86 30
l28 30 -23 73 c-25 78 -27 84 -19 76 3 -3 16 -36 29 -74z m16509 31 c-3 -9 -8
-14 -10 -11 -3 3 -2 9 2 15 9 16 15 13 8 -4z m-22596 -97 c-2 -18 -4 -4 -4 32
0 36 2 50 4 33 2 -18 2 -48 0 -65z m23080 30 c-3 -8 -6 -5 -6 6 -1 11 2 17 5
13 3 -3 4 -12 1 -19z m-18154 -5 c-7 -2 -21 -2 -30 0 -10 3 -4 5 12 5 17 0 24
-2 18 -5z m85 -10 c-10 -2 -26 -2 -35 0 -10 3 -2 5 17 5 19 0 27 -2 18 -5z
m245 -20 c-7 -2 -21 -2 -30 0 -10 3 -4 5 12 5 17 0 24 -2 18 -5z m90 -10 c-13
-2 -33 -2 -45 0 -13 2 -3 4 22 4 25 0 35 -2 23 -4z m110 -10 c-7 -2 -19 -2
-25 0 -7 3 -2 5 12 5 14 0 19 -2 13 -5z m125 -10 c-10 -2 -28 -2 -40 0 -13 2
-5 4 17 4 22 1 32 -1 23 -4z m110 -10 c-16 -2 -40 -2 -55 0 -16 2 -3 4 27 4
30 0 43 -2 28 -4z m105 -10 c-13 -2 -35 -2 -50 0 -16 2 -5 4 22 4 28 0 40 -2
28 -4z m105 -10 c-10 -2 -26 -2 -35 0 -10 3 -2 5 17 5 19 0 27 -2 18 -5z
m7392 -28 c0 -5 -5 -3 -10 5 -5 8 -10 20 -10 25 0 6 5 3 10 -5 5 -8 10 -19 10
-25z m-13283 -157 c-2 -29 -3 -8 -3 47 0 55 1 79 3 53 2 -26 2 -71 0 -100z
m10 -190 c-2 -24 -4 -5 -4 42 0 47 2 66 4 43 2 -24 2 -62 0 -85z m13373 67 c0
-5 -5 -3 -10 5 -5 8 -10 20 -10 25 0 6 5 3 10 -5 5 -8 10 -19 10 -25z m1990 1
c0 -2 -7 -7 -16 -10 -8 -3 -12 -2 -9 4 6 10 25 14 25 6z m-1950 -111 c0 -5 -5
-3 -10 5 -5 8 -10 20 -10 25 0 6 5 3 10 -5 5 -8 10 -19 10 -25z m6247 -77 c-3
-7 -5 -2 -5 12 0 14 2 19 5 13 2 -7 2 -19 0 -25z m2553 22 c0 -5 -6 -10 -14
-10 -8 0 -18 5 -21 10 -3 6 3 10 14 10 12 0 21 -4 21 -10z m-15450 -140 c31
-30 38 -39 15 -20 -59 48 -132 117 -141 132 -7 13 27 -17 126 -112z m8270 115
c0 -2 -10 -9 -22 -15 -22 -11 -22 -10 -4 4 21 17 26 19 26 11z m-15023 -47
c-3 -8 -6 -5 -6 6 -1 11 2 17 5 13 3 -3 4 -12 1 -19z m13462 -48 c0 -10 -3 -8
-9 5 -12 27 -12 43 0 25 5 -8 9 -22 9 -30z m1390 -3 c-2 -1 -13 -9 -24 -17
-19 -14 -19 -14 -6 3 7 9 18 17 24 17 6 0 8 -1 6 -3z m-1369 -52 c0 -5 -5 -3
-10 5 -5 8 -10 20 -10 25 0 6 5 3 10 -5 5 -8 10 -19 10 -25z m1320 20 c0 -2
-10 -9 -22 -15 -22 -11 -22 -10 -4 4 21 17 26 19 26 11z m-7897 -125 c-2 -2
-25 18 -51 45 l-47 49 51 -44 c27 -25 49 -47 47 -50z m-9620 6 c51 -19 75 -42
89 -87 14 -48 -7 -111 -52 -154 -27 -26 -33 -27 -87 -21 -32 4 -68 6 -81 6
-13 0 -20 5 -17 10 3 6 0 10 -7 10 -7 0 -14 13 -15 31 -1 17 -9 44 -17 60 -8
16 -11 29 -7 29 4 0 13 17 19 38 13 42 46 87 59 79 4 -2 17 -1 28 4 28 11 45
10 88 -5z m16246 -36 c0 -10 -3 -8 -9 5 -12 27 -12 43 0 25 5 -8 9 -22 9 -30z
m-6573 -12 l29 -33 -32 29 c-31 28 -38 36 -30 36 2 0 16 -15 33 -32z m7604 27
c0 -2 -10 -9 -22 -15 -22 -11 -22 -10 -4 4 21 17 26 19 26 11z m-14553 -62
c-3 -10 -5 -4 -5 12 0 17 2 24 5 18 2 -7 2 -21 0 -30z m14483 22 c0 -2 -10 -9
-22 -15 -22 -11 -22 -10 -4 4 21 17 26 19 26 11z m-7320 -183 c0 -2 -17 11
-38 29 -21 19 -61 55 -90 81 -28 25 -52 49 -52 53 0 3 41 -31 90 -76 50 -45
90 -85 90 -87z m12507 -4 c-2 -13 -4 -3 -4 22 0 25 2 35 4 23 2 -13 2 -33 0
-45z m-19660 -35 c-2 -16 -4 -5 -4 22 0 28 2 40 4 28 2 -13 2 -35 0 -50z
m7223 -18 c19 -19 32 -35 29 -35 -3 0 -20 16 -39 35 -19 19 -32 35 -29 35 3 0
20 -16 39 -35z m12447 -62 c-2 -16 -4 -5 -4 22 0 28 2 40 4 28 2 -13 2 -35 0
-50z m-12349 -24 c23 -22 42 -43 42 -47 0 -3 -21 14 -47 38 -26 25 -50 46 -52
48 -2 1 0 2 5 2 5 0 28 -19 52 -41z m113 -106 c13 -16 12 -17 -3 -4 -10 7 -18
15 -18 17 0 8 8 3 21 -13z m3209 -21 c0 -5 17 -14 38 -21 20 -6 46 -19 57 -29
23 -19 85 -106 85 -119 0 -4 -10 -20 -23 -36 -12 -15 -35 -45 -52 -67 -16 -21
-35 -39 -42 -40 -7 0 -17 -10 -24 -22 -10 -19 -12 -19 -21 -5 -5 10 -15 17
-23 17 -19 0 -135 69 -135 80 0 6 -7 10 -16 10 -9 0 -12 5 -8 12 4 6 6 35 5
64 -2 42 3 60 20 84 13 16 29 30 36 30 18 0 83 32 83 42 0 4 5 8 10 8 6 0 10
-4 10 -8z m-3135 -42 c10 -11 16 -20 13 -20 -3 0 -13 9 -23 20 -10 11 -16 20
-13 20 3 0 13 -9 23 -20z m10896 -17 c13 -16 12 -17 -3 -4 -10 7 -18 15 -18
17 0 8 8 3 21 -13z m-10786 -83 c10 -11 16 -20 13 -20 -3 0 -13 9 -23 20 -10
11 -16 20 -13 20 3 0 13 -9 23 -20z m12072 -62 c-2 -13 -4 -5 -4 17 -1 22 1
32 4 23 2 -10 2 -28 0 -40z m-11987 -13 c13 -14 21 -25 18 -25 -2 0 -15 11
-28 25 -13 14 -21 25 -18 25 2 0 15 -11 28 -25z m10875 -75 l20 -25 -22 19
c-13 11 -23 24 -23 29 0 6 1 8 3 6 1 -2 11 -15 22 -29z m1122 -47 c-2 -16 -4
-5 -4 22 0 28 2 40 4 28 2 -13 2 -35 0 -50z m-11887 22 c19 -19 32 -35 29 -35
-3 0 -20 16 -39 35 -19 19 -32 35 -29 35 3 0 20 -16 39 -35z m10831 -62 c13
-16 12 -17 -3 -4 -10 7 -18 15 -18 17 0 8 8 3 21 -13z m-10720 -21 c8 2 13 -2
12 -8 -1 -7 26 -36 60 -65 34 -30 68 -62 76 -72 7 -10 20 -16 28 -13 8 3 12 2
9 -2 -9 -14 71 -85 85 -77 7 5 10 4 6 -2 -9 -14 59 -77 72 -68 6 3 10 2 9 -5
-2 -6 42 -54 97 -106 100 -96 89 -99 -15 -4 -30 28 -60 48 -67 45 -7 -2 -15 1
-19 7 -4 7 -3 8 4 4 7 -4 12 -4 12 1 0 15 -70 64 -82 57 -7 -4 -8 -3 -4 5 11
17 -14 43 -33 36 -8 -3 -12 -3 -8 1 10 10 -34 55 -46 47 -6 -3 -7 -1 -4 4 9
14 -19 37 -32 28 -7 -3 -8 0 -5 9 6 15 -6 21 -29 17 -5 -1 -6 2 -3 7 7 12 -48
64 -58 55 -4 -5 -6 -1 -4 7 2 8 -3 14 -9 13 -7 -2 -12 0 -11 5 2 4 -20 29 -47
56 -28 27 -40 42 -29 32 12 -9 28 -16 35 -14z m-7894 -34 c-3 -7 -5 -2 -5 12
0 14 2 19 5 13 2 -7 2 -19 0 -25z m18644 15 c13 -16 12 -17 -3 -4 -10 7 -18
15 -18 17 0 8 8 3 21 -13z m38 -57 c-3 -3 -11 5 -18 17 -13 21 -12 21 5 5 10
-10 16 -20 13 -22z m998 -18 c-3 -7 -5 -2 -5 12 0 14 2 19 5 13 2 -7 2 -19 0
-25z m10 -185 c-2 -16 -4 -5 -4 22 0 28 2 40 4 28 2 -13 2 -35 0 -50z m-5292
-133 l59 -65 -65 65 c-36 36 -91 94 -124 130 l-59 65 65 -65 c36 -36 91 -94
124 -130z m4444 125 c3 -6 -6 3 -21 20 -15 16 -28 34 -28 39 0 8 36 -36 49
-59z m32 -42 c13 -16 12 -17 -3 -4 -10 7 -18 15 -18 17 0 8 8 3 21 -13z m826
-95 c-2 -18 -4 -4 -4 32 0 36 2 50 4 33 2 -18 2 -48 0 -65z m1083 59 c0 -2
-10 -12 -22 -23 l-23 -19 19 23 c18 21 26 27 26 19z m-1849 -44 c13 -16 12
-17 -3 -4 -10 7 -18 15 -18 17 0 8 8 3 21 -13z m69 -90 c19 -26 27 -43 19 -36
-8 7 -30 34 -49 60 -19 26 -27 43 -19 36 8 -7 30 -34 49 -60z m1720 64 c0 -2
-12 -14 -27 -28 l-28 -24 24 28 c23 25 31 32 31 24z m-1013 -129 c-2 -13 -4
-5 -4 17 -1 22 1 32 4 23 2 -10 2 -28 0 -40z m-5127 -45 c0 -8 -9 0 -50 45
l-45 47 48 -45 c26 -24 47 -45 47 -47z m6060 84 c0 -2 -12 -14 -27 -28 l-28
-24 24 28 c23 25 31 32 31 24z m-1570 -67 c30 -43 18 -37 -16 7 -15 20 -23 33
-16 29 6 -3 21 -20 32 -36z m1500 -13 c0 -2 -10 -12 -22 -23 l-23 -19 19 23
c18 21 26 27 26 19z m-1459 -44 c13 -16 12 -17 -3 -4 -10 7 -18 15 -18 17 0 8
8 3 21 -13z m1409 -16 c0 -2 -12 -14 -27 -28 l-28 -24 24 28 c23 25 31 32 31
24z m-1379 -24 c13 -16 12 -17 -3 -4 -10 7 -18 15 -18 17 0 8 8 3 21 -13z
m576 -35 c-2 -13 -4 -5 -4 17 -1 22 1 32 4 23 2 -10 2 -28 0 -40z m-533 -23
c15 -19 23 -35 19 -35 -4 0 -18 16 -31 35 -29 45 -22 45 12 0z m-4483 8 c13
-16 12 -17 -3 -4 -10 7 -18 15 -18 17 0 8 8 3 21 -13z m4603 -168 c47 -63 84
-115 82 -115 -5 0 -82 99 -140 178 -21 28 -36 52 -33 52 2 0 43 -52 91 -115z
m428 8 c2 -28 0 -49 -4 -46 -5 2 -7 34 -7 71 2 71 6 61 11 -25z m638 64 c0 -2
-15 -16 -32 -33 l-33 -29 29 33 c28 30 36 37 36 29z m-60 -70 c0 -2 -15 -16
-32 -33 l-33 -29 29 33 c28 30 36 37 36 29z m-70 -80 c0 -2 -15 -16 -32 -33
l-33 -29 29 33 c28 30 36 37 36 29z m-503 -74 c-2 -16 -4 -5 -4 22 0 28 2 40
4 28 2 -13 2 -35 0 -50z m-272 -65 c79 -107 97 -134 64 -96 -44 50 -144 188
-136 188 2 0 35 -42 72 -92z m626 -31 c-44 -52 -88 -100 -98 -108 -9 -8 25 34
76 94 51 59 95 107 97 107 3 0 -31 -42 -75 -93z m-17064 71 c15 -7 31 -16 34
-21 3 -4 12 -7 19 -5 10 2 14 -17 17 -72 2 -41 5 -83 7 -93 2 -9 0 -15 -4 -12
-5 3 -10 2 -12 -3 -1 -4 -20 -19 -42 -32 -69 -42 -172 -22 -203 41 -14 26 -16
108 -4 149 13 49 122 77 188 48z m16720 -120 c-2 -13 -4 -5 -4 17 -1 22 1 32
4 23 2 -10 2 -28 0 -40z m-117 -139 c70 -96 55 -86 -21 14 -35 45 -55 76 -46
68 10 -8 40 -45 67 -82z m132 -41 c2 -31 0 -54 -4 -51 -5 2 -7 39 -7 81 2 80
6 68 11 -30z m124 -4 c-82 -94 -85 -99 -71 -121 24 -35 19 -69 -13 -92 -28
-20 -29 -20 -60 -1 -18 11 -32 27 -32 35 0 9 -10 15 -27 16 l-28 1 30 8 c17 4
26 8 21 9 -5 0 -1 10 8 20 17 19 17 21 -9 58 l-27 38 28 -33 c32 -36 53 -41
55 -14 1 16 2 16 6 0 2 -10 10 -18 16 -18 7 0 50 45 97 99 47 55 87 98 89 96
1 -2 -36 -48 -83 -101z m-10449 0 c8 -20 -8 -36 -26 -25 -15 10 -8 41 9 41 6
0 13 -7 17 -16z m12076 -111 c-7 -2 -19 -2 -25 0 -7 3 -2 5 12 5 14 0 19 -2
13 -5z m-590 -30 c-13 -2 -35 -2 -50 0 -16 2 -5 4 22 4 28 0 40 -2 28 -4z
m-1310 -20 c-7 -2 -21 -2 -30 0 -10 3 -4 5 12 5 17 0 24 -2 18 -5z m-578 -14
c-187 -3 -482 -6 -655 -5 l-315 1 295 5 c162 3 457 6 655 6 l360 0 -340 -7z
m1323 4 c-16 -2 -40 -2 -55 0 -16 2 -3 4 27 4 30 0 43 -2 28 -4z m-235 -10
c-13 -2 -35 -2 -50 0 -16 2 -5 4 22 4 28 0 40 -2 28 -4z m74 1 c-3 -3 -12 -4
-19 -1 -8 3 -5 6 6 6 11 1 17 -2 13 -5z m-2374 -11 c-46 -2 -120 -2 -165 0
-46 1 -9 3 82 3 91 0 128 -2 83 -3z m2120 0 c-13 -2 -33 -2 -45 0 -13 2 -3 4
22 4 25 0 35 -2 23 -4z m-4396 -14 c16 -16 5 -39 -17 -39 -23 0 -32 13 -24 34
7 19 25 21 41 5z m-19917 -69 c11 -11 17 -28 15 -42 -7 -35 -65 -77 -65 -47 0
5 -4 7 -10 4 -6 -4 -10 8 -11 27 -1 31 -1 32 -9 8 -8 -24 -8 -24 -9 5 -1 37
13 60 29 50 9 -5 11 -4 6 3 -12 20 32 14 54 -8z m24157 -42 c-3 -7 -5 -2 -5
12 0 14 2 19 5 13 2 -7 2 -19 0 -25z m10 -115 c-2 -16 -4 -3 -4 27 0 30 2 43
4 28 2 -16 2 -40 0 -55z m10 -85 c-3 -7 -5 -2 -5 12 0 14 2 19 5 13 2 -7 2
-19 0 -25z m10 -90 c-3 -8 -6 -5 -6 6 -1 11 2 17 5 13 3 -3 4 -12 1 -19z
m7954 -61 c-10 -9 -11 -8 -5 6 3 10 9 15 12 12 3 -3 0 -11 -7 -18z m-7944 -54
c-2 -16 -4 -5 -4 22 0 28 2 40 4 28 2 -13 2 -35 0 -50z m7981 53 c-7 -8 -15
-12 -17 -11 -5 6 10 25 20 25 5 0 4 -6 -3 -14z m52 -6 c0 -5 -5 -10 -11 -10
-5 0 -7 5 -4 10 3 6 8 10 11 10 2 0 4 -4 4 -10z m-80 -14 c0 -3 -4 -8 -10 -11
-5 -3 -10 -1 -10 4 0 6 5 11 10 11 6 0 10 -2 10 -4z m80 -13 c-8 -3 -18 -11
-22 -17 -4 -6 -10 -7 -15 -3 -9 10 16 27 37 26 13 -1 13 -1 0 -6z m-55 -23 c3
-5 2 -10 -4 -10 -5 0 -13 5 -16 10 -3 6 -2 10 4 10 5 0 13 -4 16 -10z m-7968
-82 c-3 -7 -5 -2 -5 12 0 14 2 19 5 13 2 -7 2 -19 0 -25z m-13262 -58 c-27
-12 -43 -12 -25 0 8 5 22 9 30 9 10 0 8 -3 -5 -9z m13272 -22 c-3 -8 -6 -5 -6
6 -1 11 2 17 5 13 3 -3 4 -12 1 -19z"/>
<path d="M35636 20963 c-4 -12 -15 -24 -24 -26 -15 -4 -15 -5 -1 -6 20 -1 42
24 37 41 -3 8 -8 4 -12 -9z"/>
<path d="M37430 16801 c0 -10 19 -25 25 -20 1 2 -3 10 -11 17 -8 7 -14 8 -14
3z"/>
<path d="M18990 14140 c-157 -9 -359 -37 -510 -71 -52 -11 -113 -25 -135 -29
-60 -13 -305 -95 -425 -142 -179 -72 -543 -267 -635 -340 -5 -5 -50 -38 -100
-75 -296 -219 -565 -495 -766 -788 -265 -386 -438 -792 -528 -1241 -50 -251
-56 -315 -55 -639 1 -364 0 -331 19 -470 67 -469 233 -929 473 -1305 83 -130
110 -170 171 -250 408 -535 958 -935 1591 -1155 121 -42 261 -82 316 -91 20
-3 47 -10 59 -14 27 -10 232 -44 365 -60 52 -6 187 -14 300 -17 570 -15 1130
117 1645 386 80 41 130 73 129 82 -1 12 -63 100 -137 197 -5 6 -7 12 -5 12 3
0 40 -45 83 -100 66 -85 81 -99 99 -94 45 14 344 226 451 319 435 381 745 816
948 1330 46 118 100 277 112 335 2 8 13 49 24 92 26 98 70 359 79 468 14 162
7 616 -11 740 -50 338 -109 559 -227 850 -45 109 -177 373 -211 421 -10 15
-19 30 -19 33 0 9 -138 213 -189 281 -263 346 -617 661 -976 871 -404 235
-788 369 -1255 438 -196 28 -455 38 -680 26z m634 -760 c690 -123 1245 -452
1667 -990 262 -334 436 -738 516 -1195 26 -148 26 -646 0 -795 -85 -487 -259
-876 -556 -1248 -85 -106 -312 -329 -421 -413 -475 -367 -1036 -559 -1630
-559 -422 0 -823 96 -1203 287 -305 153 -602 389 -827 659 -71 84 -210 276
-210 290 0 4 -6 15 -14 23 -25 29 -113 195 -164 311 -95 218 -156 430 -194
675 -30 199 -30 541 0 740 62 403 194 745 416 1080 330 497 837 874 1411 1050
311 95 467 115 840 110 198 -3 275 -8 369 -25z m2809 -2917 c-7 -2 -19 -2 -25
0 -7 3 -2 5 12 5 14 0 19 -2 13 -5z m-6376 -19 c-3 -3 -12 -4 -19 -1 -8 3 -5
6 6 6 11 1 17 -2 13 -5z"/>
<path d="M18530 12660 l0 -330 -415 0 -415 0 0 -214 0 -214 203 -4 c178 -3
207 -5 242 -23 81 -40 76 34 73 -1070 l-3 -980 -24 -38 c-39 -62 -57 -67 -260
-67 -99 0 -182 -4 -185 -8 -3 -5 -8 -104 -12 -220 l-7 -212 401 0 402 0 0
-335 c0 -216 4 -335 10 -335 6 0 89 0 185 0 96 0 186 0 200 0 l25 0 0 335 0
335 140 0 140 0 0 -334 c0 -303 2 -335 16 -338 10 -2 102 -2 205 0 l189 3 0
334 0 335 88 0 c505 0 854 153 1025 450 102 178 147 507 97 706 -58 227 -219
400 -461 493 l-72 28 46 31 c106 73 211 204 257 321 11 29 27 94 36 144 43
250 -59 493 -268 635 -162 110 -409 192 -685 227 l-53 7 0 86 c0 48 -1 197 -3
332 l-2 245 -207 3 -206 2 -5 -47 c-3 -27 -5 -175 -4 -330 l2 -283 -137 0
-138 0 0 330 0 330 -210 0 -210 0 0 -330z m953 -809 c249 -44 377 -161 380
-351 3 -205 -106 -360 -294 -420 -55 -18 -91 -20 -340 -20 l-279 0 0 405 0
405 213 0 c161 -1 238 -5 320 -19z m114 -1222 c235 -31 377 -108 440 -238 24
-48 28 -68 27 -141 -1 -238 -127 -392 -375 -462 -67 -19 -107 -21 -406 -25
l-333 -5 0 441 0 441 284 0 c157 0 320 -5 363 -11z"/>
<path d="M3505 639 c-4 -6 -5 -12 -2 -15 2 -3 7 2 10 11 7 17 1 20 -8 4z"/>
</g>
</svg>
